%TF.GenerationSoftware,KiCad,Pcbnew,7.0.9-7.0.9~ubuntu22.04.1*%
%TF.CreationDate,2023-12-01T21:26:12+01:00*%
%TF.ProjectId,rp2040_pmod,72703230-3430-45f7-906d-6f642e6b6963,rev?*%
%TF.SameCoordinates,Original*%
%TF.FileFunction,Paste,Top*%
%TF.FilePolarity,Positive*%
%FSLAX46Y46*%
G04 Gerber Fmt 4.6, Leading zero omitted, Abs format (unit mm)*
G04 Created by KiCad (PCBNEW 7.0.9-7.0.9~ubuntu22.04.1) date 2023-12-01 21:26:12*
%MOMM*%
%LPD*%
G01*
G04 APERTURE LIST*
G04 Aperture macros list*
%AMRoundRect*
0 Rectangle with rounded corners*
0 $1 Rounding radius*
0 $2 $3 $4 $5 $6 $7 $8 $9 X,Y pos of 4 corners*
0 Add a 4 corners polygon primitive as box body*
4,1,4,$2,$3,$4,$5,$6,$7,$8,$9,$2,$3,0*
0 Add four circle primitives for the rounded corners*
1,1,$1+$1,$2,$3*
1,1,$1+$1,$4,$5*
1,1,$1+$1,$6,$7*
1,1,$1+$1,$8,$9*
0 Add four rect primitives between the rounded corners*
20,1,$1+$1,$2,$3,$4,$5,0*
20,1,$1+$1,$4,$5,$6,$7,0*
20,1,$1+$1,$6,$7,$8,$9,0*
20,1,$1+$1,$8,$9,$2,$3,0*%
G04 Aperture macros list end*
%ADD10R,1.400000X1.200000*%
%ADD11RoundRect,0.225000X-0.250000X0.225000X-0.250000X-0.225000X0.250000X-0.225000X0.250000X0.225000X0*%
%ADD12RoundRect,0.200000X0.800000X-0.200000X0.800000X0.200000X-0.800000X0.200000X-0.800000X-0.200000X0*%
%ADD13RoundRect,0.225000X0.225000X0.250000X-0.225000X0.250000X-0.225000X-0.250000X0.225000X-0.250000X0*%
%ADD14RoundRect,0.100000X0.100000X0.575000X-0.100000X0.575000X-0.100000X-0.575000X0.100000X-0.575000X0*%
%ADD15O,0.900000X1.600000*%
%ADD16RoundRect,0.250000X0.550000X0.450000X-0.550000X0.450000X-0.550000X-0.450000X0.550000X-0.450000X0*%
%ADD17RoundRect,0.250000X0.700000X0.700000X-0.700000X0.700000X-0.700000X-0.700000X0.700000X-0.700000X0*%
%ADD18RoundRect,0.200000X-0.200000X-0.275000X0.200000X-0.275000X0.200000X0.275000X-0.200000X0.275000X0*%
%ADD19RoundRect,0.218750X0.256250X-0.218750X0.256250X0.218750X-0.256250X0.218750X-0.256250X-0.218750X0*%
%ADD20RoundRect,0.250000X-0.435000X-0.615000X0.435000X-0.615000X0.435000X0.615000X-0.435000X0.615000X0*%
%ADD21RoundRect,0.125000X-0.250000X-0.125000X0.250000X-0.125000X0.250000X0.125000X-0.250000X0.125000X0*%
%ADD22RoundRect,0.225000X-0.225000X-0.250000X0.225000X-0.250000X0.225000X0.250000X-0.225000X0.250000X0*%
%ADD23RoundRect,0.225000X0.250000X-0.225000X0.250000X0.225000X-0.250000X0.225000X-0.250000X-0.225000X0*%
%ADD24RoundRect,0.200000X-0.275000X0.200000X-0.275000X-0.200000X0.275000X-0.200000X0.275000X0.200000X0*%
%ADD25RoundRect,0.200000X0.275000X-0.200000X0.275000X0.200000X-0.275000X0.200000X-0.275000X-0.200000X0*%
%ADD26RoundRect,0.150000X-0.512500X-0.150000X0.512500X-0.150000X0.512500X0.150000X-0.512500X0.150000X0*%
%ADD27RoundRect,0.249999X-0.395001X-0.395001X0.395001X-0.395001X0.395001X0.395001X-0.395001X0.395001X0*%
%ADD28RoundRect,0.050000X-0.387500X-0.050000X0.387500X-0.050000X0.387500X0.050000X-0.387500X0.050000X0*%
%ADD29RoundRect,0.050000X-0.050000X-0.387500X0.050000X-0.387500X0.050000X0.387500X-0.050000X0.387500X0*%
G04 APERTURE END LIST*
D10*
%TO.C,Y1*%
X140300000Y-99250000D03*
X142500000Y-99250000D03*
X142500000Y-97550000D03*
X140300000Y-97550000D03*
%TD*%
D11*
%TO.C,C3*%
X138500000Y-97725000D03*
X138500000Y-99275000D03*
%TD*%
D12*
%TO.C,SW1*%
X132000000Y-92700000D03*
X132000000Y-88500000D03*
%TD*%
D13*
%TO.C,C1*%
X137875000Y-80800000D03*
X136325000Y-80800000D03*
%TD*%
D14*
%TO.C,J2*%
X141300000Y-74180000D03*
X140650000Y-74180000D03*
X140000000Y-74180000D03*
X139350000Y-74180000D03*
X138700000Y-74180000D03*
D15*
X143300000Y-71505000D03*
D16*
X143200000Y-73955000D03*
D17*
X141200000Y-71505000D03*
X138800000Y-71505000D03*
D16*
X136800000Y-73955000D03*
D15*
X136700000Y-71505000D03*
%TD*%
D18*
%TO.C,R4*%
X132075000Y-80800000D03*
X133725000Y-80800000D03*
%TD*%
D19*
%TO.C,D1*%
X148600000Y-98987500D03*
X148600000Y-97412500D03*
%TD*%
D20*
%TO.C,U2*%
X134110000Y-83350000D03*
X134110000Y-85500000D03*
X135810000Y-83350000D03*
X135810000Y-85500000D03*
D21*
X132260000Y-82520000D03*
X132260000Y-83790000D03*
X132260000Y-85060000D03*
X132260000Y-86330000D03*
X137660000Y-86330000D03*
X137660000Y-85060000D03*
X137660000Y-83790000D03*
X137660000Y-82520000D03*
%TD*%
D22*
%TO.C,C7*%
X136260000Y-93460000D03*
X137810000Y-93460000D03*
%TD*%
D11*
%TO.C,C4*%
X141400000Y-82900000D03*
X141400000Y-84450000D03*
%TD*%
%TO.C,C9*%
X148500000Y-90325000D03*
X148500000Y-91875000D03*
%TD*%
D23*
%TO.C,C2*%
X144300000Y-99175000D03*
X144300000Y-97625000D03*
%TD*%
D24*
%TO.C,R1*%
X143000000Y-82875000D03*
X143000000Y-84525000D03*
%TD*%
D11*
%TO.C,C5*%
X139800000Y-82900000D03*
X139800000Y-84450000D03*
%TD*%
D23*
%TO.C,C11*%
X135600000Y-78575000D03*
X135600000Y-77025000D03*
%TD*%
D24*
%TO.C,R2*%
X144600000Y-82875000D03*
X144600000Y-84525000D03*
%TD*%
D13*
%TO.C,C10*%
X143575000Y-76600000D03*
X142025000Y-76600000D03*
%TD*%
D25*
%TO.C,R6*%
X146900000Y-99025000D03*
X146900000Y-97375000D03*
%TD*%
%TO.C,R5*%
X134600000Y-90125000D03*
X134600000Y-88475000D03*
%TD*%
D22*
%TO.C,C6*%
X136225000Y-91900000D03*
X137775000Y-91900000D03*
%TD*%
D18*
%TO.C,R3*%
X140875000Y-95800000D03*
X142525000Y-95800000D03*
%TD*%
D26*
%TO.C,U3*%
X131625000Y-76600000D03*
X131625000Y-77550000D03*
X131625000Y-78500000D03*
X133900000Y-78500000D03*
X133900000Y-76600000D03*
%TD*%
D22*
%TO.C,C8*%
X136250000Y-95000000D03*
X137800000Y-95000000D03*
%TD*%
D27*
%TO.C,U1*%
X142100000Y-90100000D03*
X142100000Y-91700000D03*
X143700000Y-90100000D03*
X143700000Y-91700000D03*
D28*
X139462500Y-88300000D03*
X139462500Y-88700000D03*
X139462500Y-89100000D03*
X139462500Y-89500000D03*
X139462500Y-89900000D03*
X139462500Y-90300000D03*
X139462500Y-90700000D03*
X139462500Y-91100000D03*
X139462500Y-91500000D03*
X139462500Y-91900000D03*
X139462500Y-92300000D03*
X139462500Y-92700000D03*
X139462500Y-93100000D03*
X139462500Y-93500000D03*
D29*
X140300000Y-94337500D03*
X140700000Y-94337500D03*
X141100000Y-94337500D03*
X141500000Y-94337500D03*
X141900000Y-94337500D03*
X142300000Y-94337500D03*
X142700000Y-94337500D03*
X143100000Y-94337500D03*
X143500000Y-94337500D03*
X143900000Y-94337500D03*
X144300000Y-94337500D03*
X144700000Y-94337500D03*
X145100000Y-94337500D03*
X145500000Y-94337500D03*
D28*
X146337500Y-93500000D03*
X146337500Y-93100000D03*
X146337500Y-92700000D03*
X146337500Y-92300000D03*
X146337500Y-91900000D03*
X146337500Y-91500000D03*
X146337500Y-91100000D03*
X146337500Y-90700000D03*
X146337500Y-90300000D03*
X146337500Y-89900000D03*
X146337500Y-89500000D03*
X146337500Y-89100000D03*
X146337500Y-88700000D03*
X146337500Y-88300000D03*
D29*
X145500000Y-87462500D03*
X145100000Y-87462500D03*
X144700000Y-87462500D03*
X144300000Y-87462500D03*
X143900000Y-87462500D03*
X143500000Y-87462500D03*
X143100000Y-87462500D03*
X142700000Y-87462500D03*
X142300000Y-87462500D03*
X141900000Y-87462500D03*
X141500000Y-87462500D03*
X141100000Y-87462500D03*
X140700000Y-87462500D03*
X140300000Y-87462500D03*
%TD*%
M02*
