M48
; DRILL file {KiCad 7.0.9-7.0.9~ubuntu22.04.1} date vie 01 dic 2023 21:26:20
; FORMAT={-:-/ absolute / inch / decimal}
; #@! TF.CreationDate,2023-12-01T21:26:20+01:00
; #@! TF.GenerationSoftware,Kicad,Pcbnew,7.0.9-7.0.9~ubuntu22.04.1
; #@! TF.FileFunction,Plated,1,2,PTH
FMAT,2
INCH
; #@! TA.AperFunction,Plated,PTH,ViaDrill
T1C0.0118
; #@! TA.AperFunction,Plated,PTH,ViaDrill
T2C0.0157
; #@! TA.AperFunction,Plated,PTH,ComponentDrill
T3C0.0197
; #@! TA.AperFunction,Plated,PTH,ComponentDrill
T4C0.0394
%
G90
G05
T1
X5.1929Y-3.4094
X5.2638Y-3.2638
X5.2638Y-3.3858
X5.3583Y-3.2638
X5.3583Y-3.3858
X5.4025Y-3.5167
X5.4375Y-3.5215
X5.4488Y-3.752
X5.6062Y-3.3662
X5.6432Y-3.3976
X5.6479Y-3.7717
X5.6764Y-3.7584
X5.6939Y-3.6732
X5.704Y-3.7976
X5.7079Y-3.3976
X5.7348Y-3.7756
X5.748Y-3.3937
X5.7638Y-3.7402
X5.7913Y-3.3268
X5.7992Y-3.3898
X5.8031Y-3.7087
X5.811Y-3.6181
X5.8307Y-3.7362
X5.8465Y-3.3268
X5.8465Y-3.3898
X5.8583Y-3.7165
X5.8661Y-3.5236
T2
X5.189Y-2.9843
X5.3701Y-3.1299
X5.5827Y-3.5354
X5.5827Y-3.622
X5.5906Y-3.0472
X5.6693Y-3.5354
X5.6693Y-3.622
T4
X5.2618Y-4.0969
X5.2618Y-4.1969
X5.3618Y-4.0969
X5.3618Y-4.1969
X5.4618Y-4.0969
X5.4618Y-4.1969
X5.5618Y-4.0969
X5.5618Y-4.1969
X5.6618Y-4.0969
X5.6618Y-4.1969
X5.7618Y-4.0969
X5.7618Y-4.1969
X5.8386Y-3.0126
X5.8386Y-3.1126
X5.8386Y-3.2126
T3
G00X5.3819Y-2.8014
M15
G01X5.3819Y-2.8289
M16
G05
G00X5.6417Y-2.8014
M15
G01X5.6417Y-2.8289
M16
G05
T0
M30
