%TF.GenerationSoftware,KiCad,Pcbnew,7.0.9-7.0.9~ubuntu22.04.1*%
%TF.CreationDate,2023-12-01T21:26:12+01:00*%
%TF.ProjectId,rp2040_pmod,72703230-3430-45f7-906d-6f642e6b6963,rev?*%
%TF.SameCoordinates,Original*%
%TF.FileFunction,Copper,L1,Top*%
%TF.FilePolarity,Positive*%
%FSLAX46Y46*%
G04 Gerber Fmt 4.6, Leading zero omitted, Abs format (unit mm)*
G04 Created by KiCad (PCBNEW 7.0.9-7.0.9~ubuntu22.04.1) date 2023-12-01 21:26:12*
%MOMM*%
%LPD*%
G01*
G04 APERTURE LIST*
G04 Aperture macros list*
%AMRoundRect*
0 Rectangle with rounded corners*
0 $1 Rounding radius*
0 $2 $3 $4 $5 $6 $7 $8 $9 X,Y pos of 4 corners*
0 Add a 4 corners polygon primitive as box body*
4,1,4,$2,$3,$4,$5,$6,$7,$8,$9,$2,$3,0*
0 Add four circle primitives for the rounded corners*
1,1,$1+$1,$2,$3*
1,1,$1+$1,$4,$5*
1,1,$1+$1,$6,$7*
1,1,$1+$1,$8,$9*
0 Add four rect primitives between the rounded corners*
20,1,$1+$1,$2,$3,$4,$5,0*
20,1,$1+$1,$4,$5,$6,$7,0*
20,1,$1+$1,$6,$7,$8,$9,0*
20,1,$1+$1,$8,$9,$2,$3,0*%
G04 Aperture macros list end*
%TA.AperFunction,SMDPad,CuDef*%
%ADD10R,1.400000X1.200000*%
%TD*%
%TA.AperFunction,SMDPad,CuDef*%
%ADD11RoundRect,0.225000X-0.250000X0.225000X-0.250000X-0.225000X0.250000X-0.225000X0.250000X0.225000X0*%
%TD*%
%TA.AperFunction,SMDPad,CuDef*%
%ADD12RoundRect,0.200000X0.800000X-0.200000X0.800000X0.200000X-0.800000X0.200000X-0.800000X-0.200000X0*%
%TD*%
%TA.AperFunction,SMDPad,CuDef*%
%ADD13RoundRect,0.225000X0.225000X0.250000X-0.225000X0.250000X-0.225000X-0.250000X0.225000X-0.250000X0*%
%TD*%
%TA.AperFunction,SMDPad,CuDef*%
%ADD14RoundRect,0.100000X0.100000X0.575000X-0.100000X0.575000X-0.100000X-0.575000X0.100000X-0.575000X0*%
%TD*%
%TA.AperFunction,ComponentPad*%
%ADD15O,0.900000X1.600000*%
%TD*%
%TA.AperFunction,SMDPad,CuDef*%
%ADD16RoundRect,0.250000X0.550000X0.450000X-0.550000X0.450000X-0.550000X-0.450000X0.550000X-0.450000X0*%
%TD*%
%TA.AperFunction,SMDPad,CuDef*%
%ADD17RoundRect,0.250000X0.700000X0.700000X-0.700000X0.700000X-0.700000X-0.700000X0.700000X-0.700000X0*%
%TD*%
%TA.AperFunction,SMDPad,CuDef*%
%ADD18RoundRect,0.200000X-0.200000X-0.275000X0.200000X-0.275000X0.200000X0.275000X-0.200000X0.275000X0*%
%TD*%
%TA.AperFunction,SMDPad,CuDef*%
%ADD19RoundRect,0.218750X0.256250X-0.218750X0.256250X0.218750X-0.256250X0.218750X-0.256250X-0.218750X0*%
%TD*%
%TA.AperFunction,ComponentPad*%
%ADD20R,1.700000X1.700000*%
%TD*%
%TA.AperFunction,ComponentPad*%
%ADD21O,1.700000X1.700000*%
%TD*%
%TA.AperFunction,SMDPad,CuDef*%
%ADD22RoundRect,0.125000X-0.250000X-0.125000X0.250000X-0.125000X0.250000X0.125000X-0.250000X0.125000X0*%
%TD*%
%TA.AperFunction,SMDPad,CuDef*%
%ADD23R,3.400000X4.300000*%
%TD*%
%TA.AperFunction,SMDPad,CuDef*%
%ADD24RoundRect,0.225000X-0.225000X-0.250000X0.225000X-0.250000X0.225000X0.250000X-0.225000X0.250000X0*%
%TD*%
%TA.AperFunction,SMDPad,CuDef*%
%ADD25RoundRect,0.225000X0.250000X-0.225000X0.250000X0.225000X-0.250000X0.225000X-0.250000X-0.225000X0*%
%TD*%
%TA.AperFunction,SMDPad,CuDef*%
%ADD26RoundRect,0.200000X-0.275000X0.200000X-0.275000X-0.200000X0.275000X-0.200000X0.275000X0.200000X0*%
%TD*%
%TA.AperFunction,SMDPad,CuDef*%
%ADD27RoundRect,0.200000X0.275000X-0.200000X0.275000X0.200000X-0.275000X0.200000X-0.275000X-0.200000X0*%
%TD*%
%TA.AperFunction,SMDPad,CuDef*%
%ADD28RoundRect,0.150000X-0.512500X-0.150000X0.512500X-0.150000X0.512500X0.150000X-0.512500X0.150000X0*%
%TD*%
%TA.AperFunction,SMDPad,CuDef*%
%ADD29RoundRect,0.050000X-0.387500X-0.050000X0.387500X-0.050000X0.387500X0.050000X-0.387500X0.050000X0*%
%TD*%
%TA.AperFunction,SMDPad,CuDef*%
%ADD30RoundRect,0.050000X-0.050000X-0.387500X0.050000X-0.387500X0.050000X0.387500X-0.050000X0.387500X0*%
%TD*%
%TA.AperFunction,SMDPad,CuDef*%
%ADD31R,3.200000X3.200000*%
%TD*%
%TA.AperFunction,ViaPad*%
%ADD32C,0.600000*%
%TD*%
%TA.AperFunction,ViaPad*%
%ADD33C,0.800000*%
%TD*%
%TA.AperFunction,Conductor*%
%ADD34C,0.200000*%
%TD*%
%TA.AperFunction,Conductor*%
%ADD35C,0.250000*%
%TD*%
%TA.AperFunction,Conductor*%
%ADD36C,0.127000*%
%TD*%
G04 APERTURE END LIST*
D10*
%TO.P,Y1,1,1*%
%TO.N,Net-(C3-Pad2)*%
X140300000Y-99250000D03*
%TO.P,Y1,2,2*%
%TO.N,GND*%
X142500000Y-99250000D03*
%TO.P,Y1,3,3*%
%TO.N,Net-(U1-XIN)*%
X142500000Y-97550000D03*
%TO.P,Y1,4,4*%
%TO.N,GND*%
X140300000Y-97550000D03*
%TD*%
D11*
%TO.P,C3,1*%
%TO.N,GND*%
X138500000Y-97725000D03*
%TO.P,C3,2*%
%TO.N,Net-(C3-Pad2)*%
X138500000Y-99275000D03*
%TD*%
D12*
%TO.P,SW1,1,1*%
%TO.N,GND*%
X132000000Y-92700000D03*
%TO.P,SW1,2,2*%
%TO.N,Net-(R5-Pad2)*%
X132000000Y-88500000D03*
%TD*%
D13*
%TO.P,C1,1*%
%TO.N,+3V3*%
X137875000Y-80800000D03*
%TO.P,C1,2*%
%TO.N,GND*%
X136325000Y-80800000D03*
%TD*%
D14*
%TO.P,J2,1,VBUS*%
%TO.N,+5V*%
X141300000Y-74180000D03*
%TO.P,J2,2,D-*%
%TO.N,Net-(J2-D-)*%
X140650000Y-74180000D03*
%TO.P,J2,3,D+*%
%TO.N,Net-(J2-D+)*%
X140000000Y-74180000D03*
%TO.P,J2,4,ID*%
%TO.N,unconnected-(J2-ID-Pad4)*%
X139350000Y-74180000D03*
%TO.P,J2,5,GND*%
%TO.N,GND*%
X138700000Y-74180000D03*
D15*
%TO.P,J2,6,Shield*%
X143300000Y-71505000D03*
D16*
X143200000Y-73955000D03*
D17*
X141200000Y-71505000D03*
X138800000Y-71505000D03*
D16*
X136800000Y-73955000D03*
D15*
X136700000Y-71505000D03*
%TD*%
D18*
%TO.P,R4,1*%
%TO.N,FLASH_CS*%
X132075000Y-80800000D03*
%TO.P,R4,2*%
%TO.N,+3V3*%
X133725000Y-80800000D03*
%TD*%
D19*
%TO.P,D1,1,K*%
%TO.N,Net-(D1-K)*%
X148600000Y-98987500D03*
%TO.P,D1,2,A*%
%TO.N,Net-(D1-A)*%
X148600000Y-97412500D03*
%TD*%
D20*
%TO.P,J3,1,Pin_1*%
%TO.N,GND*%
X148300000Y-76520000D03*
D21*
%TO.P,J3,2,Pin_2*%
%TO.N,ADC*%
X148300000Y-79060000D03*
%TO.P,J3,3,Pin_3*%
%TO.N,+3V3*%
X148300000Y-81600000D03*
%TD*%
D22*
%TO.P,U2,1,~{CS}*%
%TO.N,FLASH_CS*%
X132260000Y-82520000D03*
%TO.P,U2,2,DO(IO1)*%
%TO.N,FLASH_SD1*%
X132260000Y-83790000D03*
%TO.P,U2,3,IO2*%
%TO.N,FLASH_SD2*%
X132260000Y-85060000D03*
%TO.P,U2,4,GND*%
%TO.N,GND*%
X132260000Y-86330000D03*
%TO.P,U2,5,DI(IO0)*%
%TO.N,FLASH_SD0*%
X137660000Y-86330000D03*
%TO.P,U2,6,CLK*%
%TO.N,FLASH_SCLK*%
X137660000Y-85060000D03*
%TO.P,U2,7,IO3*%
%TO.N,FLASH_SD3*%
X137660000Y-83790000D03*
%TO.P,U2,8,VCC*%
%TO.N,+3V3*%
X137660000Y-82520000D03*
D23*
%TO.P,U2,9,EP*%
%TO.N,GND*%
X134960000Y-84425000D03*
%TD*%
D24*
%TO.P,C7,1*%
%TO.N,GND*%
X136260000Y-93460000D03*
%TO.P,C7,2*%
%TO.N,+3V3*%
X137810000Y-93460000D03*
%TD*%
D11*
%TO.P,C4,1*%
%TO.N,GND*%
X141400000Y-82900000D03*
%TO.P,C4,2*%
%TO.N,+1V1*%
X141400000Y-84450000D03*
%TD*%
%TO.P,C9,1*%
%TO.N,GND*%
X148500000Y-90325000D03*
%TO.P,C9,2*%
%TO.N,+3V3*%
X148500000Y-91875000D03*
%TD*%
D25*
%TO.P,C2,1*%
%TO.N,GND*%
X144300000Y-99175000D03*
%TO.P,C2,2*%
%TO.N,Net-(U1-XIN)*%
X144300000Y-97625000D03*
%TD*%
D20*
%TO.P,J1,1,Pin_1*%
%TO.N,unconnected-(J1-Pin_1-Pad1)*%
X146350000Y-104060000D03*
D21*
%TO.P,J1,2,Pin_2*%
%TO.N,unconnected-(J1-Pin_2-Pad2)*%
X146350000Y-106600000D03*
%TO.P,J1,3,Pin_3*%
%TO.N,GND*%
X143810000Y-104060000D03*
%TO.P,J1,4,Pin_4*%
X143810000Y-106600000D03*
%TO.P,J1,5,Pin_5*%
%TO.N,PMOD5*%
X141270000Y-104060000D03*
%TO.P,J1,6,Pin_6*%
%TO.N,PMOD6*%
X141270000Y-106600000D03*
%TO.P,J1,7,Pin_7*%
%TO.N,PMOD3*%
X138730000Y-104060000D03*
%TO.P,J1,8,Pin_8*%
%TO.N,PMOD4*%
X138730000Y-106600000D03*
%TO.P,J1,9,Pin_9*%
%TO.N,PMOD1*%
X136190000Y-104060000D03*
%TO.P,J1,10,Pin_10*%
%TO.N,PMOD2*%
X136190000Y-106600000D03*
%TO.P,J1,11,Pin_11*%
%TO.N,UART_TX*%
X133650000Y-104060000D03*
%TO.P,J1,12,Pin_12*%
%TO.N,UART_RX*%
X133650000Y-106600000D03*
%TD*%
D26*
%TO.P,R1,1*%
%TO.N,Net-(J2-D+)*%
X143000000Y-82875000D03*
%TO.P,R1,2*%
%TO.N,Net-(U1-USB_DP)*%
X143000000Y-84525000D03*
%TD*%
D11*
%TO.P,C5,1*%
%TO.N,GND*%
X139800000Y-82900000D03*
%TO.P,C5,2*%
%TO.N,+1V1*%
X139800000Y-84450000D03*
%TD*%
D25*
%TO.P,C11,1*%
%TO.N,GND*%
X135600000Y-78575000D03*
%TO.P,C11,2*%
%TO.N,+3V3*%
X135600000Y-77025000D03*
%TD*%
D26*
%TO.P,R2,1*%
%TO.N,Net-(J2-D-)*%
X144600000Y-82875000D03*
%TO.P,R2,2*%
%TO.N,Net-(U1-USB_DM)*%
X144600000Y-84525000D03*
%TD*%
D13*
%TO.P,C10,1*%
%TO.N,GND*%
X143575000Y-76600000D03*
%TO.P,C10,2*%
%TO.N,+5V*%
X142025000Y-76600000D03*
%TD*%
D27*
%TO.P,R6,1*%
%TO.N,GND*%
X146900000Y-99025000D03*
%TO.P,R6,2*%
%TO.N,Net-(D1-K)*%
X146900000Y-97375000D03*
%TD*%
%TO.P,R5,1*%
%TO.N,FLASH_CS*%
X134600000Y-90125000D03*
%TO.P,R5,2*%
%TO.N,Net-(R5-Pad2)*%
X134600000Y-88475000D03*
%TD*%
D24*
%TO.P,C6,1*%
%TO.N,GND*%
X136225000Y-91900000D03*
%TO.P,C6,2*%
%TO.N,+3V3*%
X137775000Y-91900000D03*
%TD*%
D18*
%TO.P,R3,1*%
%TO.N,Net-(C3-Pad2)*%
X140875000Y-95800000D03*
%TO.P,R3,2*%
%TO.N,Net-(U1-XOUT)*%
X142525000Y-95800000D03*
%TD*%
D28*
%TO.P,U3,1,IN*%
%TO.N,+5V*%
X131625000Y-76600000D03*
%TO.P,U3,2,GND*%
%TO.N,GND*%
X131625000Y-77550000D03*
%TO.P,U3,3,EN*%
%TO.N,+5V*%
X131625000Y-78500000D03*
%TO.P,U3,4,BP*%
%TO.N,unconnected-(U3-BP-Pad4)*%
X133900000Y-78500000D03*
%TO.P,U3,5,OUT*%
%TO.N,+3V3*%
X133900000Y-76600000D03*
%TD*%
D24*
%TO.P,C8,1*%
%TO.N,GND*%
X136250000Y-95000000D03*
%TO.P,C8,2*%
%TO.N,+3V3*%
X137800000Y-95000000D03*
%TD*%
D29*
%TO.P,U1,1,IOVDD*%
%TO.N,+3V3*%
X139462500Y-88300000D03*
%TO.P,U1,2,GPIO0*%
%TO.N,UART_TX*%
X139462500Y-88700000D03*
%TO.P,U1,3,GPIO1*%
%TO.N,UART_RX*%
X139462500Y-89100000D03*
%TO.P,U1,4,GPIO2*%
%TO.N,unconnected-(U1-GPIO2-Pad4)*%
X139462500Y-89500000D03*
%TO.P,U1,5,GPIO3*%
%TO.N,unconnected-(U1-GPIO3-Pad5)*%
X139462500Y-89900000D03*
%TO.P,U1,6,GPIO4*%
%TO.N,unconnected-(U1-GPIO4-Pad6)*%
X139462500Y-90300000D03*
%TO.P,U1,7,GPIO5*%
%TO.N,unconnected-(U1-GPIO5-Pad7)*%
X139462500Y-90700000D03*
%TO.P,U1,8,GPIO6*%
%TO.N,unconnected-(U1-GPIO6-Pad8)*%
X139462500Y-91100000D03*
%TO.P,U1,9,GPIO7*%
%TO.N,unconnected-(U1-GPIO7-Pad9)*%
X139462500Y-91500000D03*
%TO.P,U1,10,IOVDD*%
%TO.N,+3V3*%
X139462500Y-91900000D03*
%TO.P,U1,11,GPIO8*%
%TO.N,unconnected-(U1-GPIO8-Pad11)*%
X139462500Y-92300000D03*
%TO.P,U1,12,GPIO9*%
%TO.N,unconnected-(U1-GPIO9-Pad12)*%
X139462500Y-92700000D03*
%TO.P,U1,13,GPIO10*%
%TO.N,unconnected-(U1-GPIO10-Pad13)*%
X139462500Y-93100000D03*
%TO.P,U1,14,GPIO11*%
%TO.N,unconnected-(U1-GPIO11-Pad14)*%
X139462500Y-93500000D03*
D30*
%TO.P,U1,15,GPIO12*%
%TO.N,unconnected-(U1-GPIO12-Pad15)*%
X140300000Y-94337500D03*
%TO.P,U1,16,GPIO13*%
%TO.N,unconnected-(U1-GPIO13-Pad16)*%
X140700000Y-94337500D03*
%TO.P,U1,17,GPIO14*%
%TO.N,unconnected-(U1-GPIO14-Pad17)*%
X141100000Y-94337500D03*
%TO.P,U1,18,GPIO15*%
%TO.N,unconnected-(U1-GPIO15-Pad18)*%
X141500000Y-94337500D03*
%TO.P,U1,19,TESTEN*%
%TO.N,GND*%
X141900000Y-94337500D03*
%TO.P,U1,20,XIN*%
%TO.N,Net-(U1-XIN)*%
X142300000Y-94337500D03*
%TO.P,U1,21,XOUT*%
%TO.N,Net-(U1-XOUT)*%
X142700000Y-94337500D03*
%TO.P,U1,22,IOVDD*%
%TO.N,+3V3*%
X143100000Y-94337500D03*
%TO.P,U1,23,DVDD*%
%TO.N,+1V1*%
X143500000Y-94337500D03*
%TO.P,U1,24,SWCLK*%
%TO.N,unconnected-(U1-SWCLK-Pad24)*%
X143900000Y-94337500D03*
%TO.P,U1,25,SWD*%
%TO.N,unconnected-(U1-SWD-Pad25)*%
X144300000Y-94337500D03*
%TO.P,U1,26,RUN*%
%TO.N,Net-(U1-RUN)*%
X144700000Y-94337500D03*
%TO.P,U1,27,GPIO16*%
%TO.N,PMOD1*%
X145100000Y-94337500D03*
%TO.P,U1,28,GPIO17*%
%TO.N,PMOD2*%
X145500000Y-94337500D03*
D29*
%TO.P,U1,29,GPIO18*%
%TO.N,PMOD3*%
X146337500Y-93500000D03*
%TO.P,U1,30,GPIO19*%
%TO.N,PMOD4*%
X146337500Y-93100000D03*
%TO.P,U1,31,GPIO20*%
%TO.N,PMOD5*%
X146337500Y-92700000D03*
%TO.P,U1,32,GPIO21*%
%TO.N,PMOD6*%
X146337500Y-92300000D03*
%TO.P,U1,33,IOVDD*%
%TO.N,+3V3*%
X146337500Y-91900000D03*
%TO.P,U1,34,GPIO22*%
%TO.N,unconnected-(U1-GPIO22-Pad34)*%
X146337500Y-91500000D03*
%TO.P,U1,35,GPIO23*%
%TO.N,unconnected-(U1-GPIO23-Pad35)*%
X146337500Y-91100000D03*
%TO.P,U1,36,GPIO24*%
%TO.N,unconnected-(U1-GPIO24-Pad36)*%
X146337500Y-90700000D03*
%TO.P,U1,37,GPIO25*%
%TO.N,Net-(D1-A)*%
X146337500Y-90300000D03*
%TO.P,U1,38,GPIO26_ADC0*%
%TO.N,ADC*%
X146337500Y-89900000D03*
%TO.P,U1,39,GPIO27_ADC1*%
%TO.N,unconnected-(U1-GPIO27_ADC1-Pad39)*%
X146337500Y-89500000D03*
%TO.P,U1,40,GPIO28_ADC2*%
%TO.N,unconnected-(U1-GPIO28_ADC2-Pad40)*%
X146337500Y-89100000D03*
%TO.P,U1,41,GPIO29_ADC3*%
%TO.N,unconnected-(U1-GPIO29_ADC3-Pad41)*%
X146337500Y-88700000D03*
%TO.P,U1,42,IOVDD*%
%TO.N,+3V3*%
X146337500Y-88300000D03*
D30*
%TO.P,U1,43,ADC_AVDD*%
X145500000Y-87462500D03*
%TO.P,U1,44,VREG_IN*%
X145100000Y-87462500D03*
%TO.P,U1,45,VREG_VOUT*%
%TO.N,+1V1*%
X144700000Y-87462500D03*
%TO.P,U1,46,USB_DM*%
%TO.N,Net-(U1-USB_DM)*%
X144300000Y-87462500D03*
%TO.P,U1,47,USB_DP*%
%TO.N,Net-(U1-USB_DP)*%
X143900000Y-87462500D03*
%TO.P,U1,48,USB_VDD*%
%TO.N,+3V3*%
X143500000Y-87462500D03*
%TO.P,U1,49,IOVDD*%
X143100000Y-87462500D03*
%TO.P,U1,50,DVDD*%
%TO.N,+1V1*%
X142700000Y-87462500D03*
%TO.P,U1,51,QSPI_SD3*%
%TO.N,FLASH_SD3*%
X142300000Y-87462500D03*
%TO.P,U1,52,QSPI_SCLK*%
%TO.N,FLASH_SCLK*%
X141900000Y-87462500D03*
%TO.P,U1,53,QSPI_SD0*%
%TO.N,FLASH_SD0*%
X141500000Y-87462500D03*
%TO.P,U1,54,QSPI_SD2*%
%TO.N,FLASH_SD2*%
X141100000Y-87462500D03*
%TO.P,U1,55,QSPI_SD1*%
%TO.N,FLASH_SD1*%
X140700000Y-87462500D03*
%TO.P,U1,56,QSPI_SS*%
%TO.N,FLASH_CS*%
X140300000Y-87462500D03*
D31*
%TO.P,U1,57,GND*%
%TO.N,GND*%
X142900000Y-90900000D03*
%TD*%
D32*
%TO.N,+3V3*%
X143456655Y-95800000D03*
X143337000Y-86300000D03*
X146000000Y-86200000D03*
X138400000Y-95300000D03*
X147600000Y-91900000D03*
D33*
%TO.N,GND*%
X141800000Y-92000000D03*
D32*
X147100000Y-84500000D03*
X147300000Y-86100000D03*
D33*
X144000000Y-92000000D03*
D32*
X136100000Y-82900000D03*
X133700000Y-82900000D03*
D33*
X144000000Y-89800000D03*
D32*
X148500000Y-84500000D03*
X131900000Y-86600000D03*
X136100000Y-86000000D03*
D33*
X136400000Y-79500000D03*
D32*
X133700000Y-86000000D03*
X148500000Y-86100000D03*
D33*
X141800000Y-89800000D03*
D32*
X149000000Y-89500000D03*
%TO.N,Net-(U1-RUN)*%
X144625000Y-93300000D03*
D33*
%TO.N,+5V*%
X142000000Y-77400000D03*
X131800000Y-75800000D03*
D32*
%TO.N,+1V1*%
X144181249Y-95462112D03*
X144981565Y-86299500D03*
X142398102Y-85501898D03*
%TO.N,UART_TX*%
X137223911Y-89323911D03*
%TO.N,UART_RX*%
X138111650Y-89445127D03*
%TO.N,PMOD1*%
X144880611Y-96459102D03*
%TO.N,PMOD2*%
X145663000Y-95900000D03*
%TO.N,PMOD3*%
X146400000Y-95000000D03*
%TO.N,PMOD4*%
X147400000Y-94200000D03*
%TO.N,PMOD5*%
X148100000Y-94900000D03*
%TO.N,PMOD6*%
X148800000Y-94400000D03*
%TD*%
D34*
%TO.N,+3V3*%
X148475000Y-91900000D02*
X148500000Y-91875000D01*
X139462500Y-91900000D02*
X137775000Y-91900000D01*
X146000000Y-86200000D02*
X146000000Y-83900000D01*
X146337500Y-88300000D02*
X145500000Y-87462500D01*
X143500000Y-86463000D02*
X143337000Y-86300000D01*
X146000000Y-86200000D02*
X145500000Y-86700000D01*
X137775000Y-91775000D02*
X137775000Y-91900000D01*
D35*
X139315948Y-83675000D02*
X146225000Y-83675000D01*
X137075000Y-81600000D02*
X137875000Y-80800000D01*
D34*
X138056849Y-88300000D02*
X137856849Y-88500000D01*
D35*
X137660000Y-82520000D02*
X138160948Y-82520000D01*
X134525000Y-81600000D02*
X137075000Y-81600000D01*
X137660000Y-82520000D02*
X137075000Y-81935000D01*
X138160948Y-82520000D02*
X139315948Y-83675000D01*
X137875000Y-79300000D02*
X135600000Y-77025000D01*
D34*
X137856849Y-88500000D02*
X137200000Y-88500000D01*
D35*
X133725000Y-80800000D02*
X134525000Y-81600000D01*
D34*
X143456655Y-95544007D02*
X143100000Y-95187352D01*
X143500000Y-87462500D02*
X143500000Y-86463000D01*
D35*
X138100000Y-95000000D02*
X138400000Y-95300000D01*
D34*
X145100000Y-87462500D02*
X145500000Y-87462500D01*
D35*
X134325000Y-77025000D02*
X133900000Y-76600000D01*
X137800000Y-95000000D02*
X138100000Y-95000000D01*
X137875000Y-80800000D02*
X137875000Y-79300000D01*
D34*
X143100000Y-95187352D02*
X143100000Y-94337500D01*
D35*
X137075000Y-81935000D02*
X137075000Y-81600000D01*
D34*
X143456655Y-95800000D02*
X143456655Y-95544007D01*
X146337500Y-91900000D02*
X147600000Y-91900000D01*
X145500000Y-86700000D02*
X145500000Y-87462500D01*
X136600000Y-89100000D02*
X136600000Y-90600000D01*
X143100000Y-87462500D02*
X143500000Y-87462500D01*
D35*
X146225000Y-83675000D02*
X148300000Y-81600000D01*
D34*
X139462500Y-88300000D02*
X138056849Y-88300000D01*
D35*
X137800000Y-91925000D02*
X137775000Y-91900000D01*
D34*
X137200000Y-88500000D02*
X136600000Y-89100000D01*
X147600000Y-91900000D02*
X148475000Y-91900000D01*
D35*
X135600000Y-77025000D02*
X134325000Y-77025000D01*
D34*
X136600000Y-90600000D02*
X137775000Y-91775000D01*
D35*
X137800000Y-95000000D02*
X137800000Y-91925000D01*
D34*
X146000000Y-83900000D02*
X148300000Y-81600000D01*
D36*
%TO.N,GND*%
X148500000Y-90000000D02*
X149000000Y-89500000D01*
X130600000Y-76826434D02*
X130600000Y-75200000D01*
X131625000Y-77550000D02*
X131323566Y-77550000D01*
D35*
X138875000Y-97350000D02*
X138500000Y-97725000D01*
D36*
X141900000Y-94337500D02*
X141900000Y-92100000D01*
D35*
X140300000Y-97350000D02*
X138875000Y-97350000D01*
D36*
X141900000Y-92100000D02*
X141800000Y-92000000D01*
X131323566Y-77550000D02*
X130600000Y-76826434D01*
X148500000Y-90325000D02*
X148500000Y-90000000D01*
D35*
%TO.N,Net-(U1-XIN)*%
X144300000Y-97625000D02*
X142775000Y-97625000D01*
D36*
X141861500Y-96911500D02*
X142500000Y-97550000D01*
X142400000Y-97250000D02*
X142500000Y-97350000D01*
X142300000Y-94819742D02*
X141861500Y-95258242D01*
X142300000Y-94337500D02*
X142300000Y-94819742D01*
X141861500Y-95258242D02*
X141861500Y-96911500D01*
D35*
X142775000Y-97625000D02*
X142500000Y-97350000D01*
D36*
%TO.N,Net-(C3-Pad2)*%
X141263500Y-96188500D02*
X140875000Y-95800000D01*
D35*
X138500000Y-99275000D02*
X140075000Y-99275000D01*
X140575000Y-99325000D02*
X140300000Y-99050000D01*
D36*
X141263500Y-98286500D02*
X141263500Y-96188500D01*
D35*
X140075000Y-99275000D02*
X140300000Y-99050000D01*
D36*
X140300000Y-99250000D02*
X141263500Y-98286500D01*
%TO.N,Net-(U1-RUN)*%
X144700000Y-94337500D02*
X144700000Y-93375000D01*
X144700000Y-93375000D02*
X144625000Y-93300000D01*
%TO.N,Net-(J2-D+)*%
X140000000Y-74180000D02*
X140000000Y-78800000D01*
X140000000Y-78800000D02*
X143000000Y-81800000D01*
X143000000Y-81800000D02*
X143000000Y-82875000D01*
%TO.N,Net-(U1-USB_DP)*%
X143900000Y-85425000D02*
X143000000Y-84525000D01*
X143900000Y-87462500D02*
X143900000Y-85425000D01*
%TO.N,Net-(J2-D-)*%
X140400000Y-75500000D02*
X140650000Y-75250000D01*
X144600000Y-82800000D02*
X140400000Y-78600000D01*
X144600000Y-82875000D02*
X144600000Y-82800000D01*
X140400000Y-78600000D02*
X140400000Y-75500000D01*
X140650000Y-75250000D02*
X140650000Y-74180000D01*
%TO.N,Net-(U1-USB_DM)*%
X144300000Y-85300000D02*
X144600000Y-85000000D01*
X144600000Y-85000000D02*
X144600000Y-84525000D01*
X144300000Y-87462500D02*
X144300000Y-85300000D01*
%TO.N,Net-(U1-XOUT)*%
X142700000Y-94337500D02*
X142700000Y-95525000D01*
X142700000Y-95525000D02*
X142425000Y-95800000D01*
%TO.N,FLASH_SD3*%
X139377922Y-85200000D02*
X141300000Y-85200000D01*
X137660000Y-83790000D02*
X138490000Y-83790000D01*
X138490000Y-83790000D02*
X139000000Y-84300000D01*
X141300000Y-85200000D02*
X142300000Y-86200000D01*
X142300000Y-86200000D02*
X142300000Y-87462500D01*
X139000000Y-84822078D02*
X139377922Y-85200000D01*
X139000000Y-84300000D02*
X139000000Y-84822078D01*
%TO.N,FLASH_SCLK*%
X141168776Y-85531224D02*
X139246698Y-85531224D01*
X141900000Y-86262448D02*
X141168776Y-85531224D01*
X138775474Y-85060000D02*
X137660000Y-85060000D01*
X139246698Y-85531224D02*
X138775474Y-85060000D01*
X141900000Y-87462500D02*
X141900000Y-86262448D01*
%TO.N,FLASH_SD0*%
X141075104Y-85900000D02*
X138090000Y-85900000D01*
X141500000Y-87462500D02*
X141500000Y-86324896D01*
X138090000Y-85900000D02*
X137660000Y-86330000D01*
X141500000Y-86324896D02*
X141075104Y-85900000D01*
%TO.N,FLASH_SD2*%
X137517886Y-87400000D02*
X131300000Y-87400000D01*
X131100000Y-85700000D02*
X131740000Y-85060000D01*
X141000000Y-86300000D02*
X138617886Y-86300000D01*
X131740000Y-85060000D02*
X132260000Y-85060000D01*
X138617886Y-86300000D02*
X137517886Y-87400000D01*
X141100000Y-87462500D02*
X141100000Y-86400000D01*
X131100000Y-87200000D02*
X131100000Y-85700000D01*
X131300000Y-87400000D02*
X131100000Y-87200000D01*
X141100000Y-86400000D02*
X141000000Y-86300000D01*
%TO.N,FLASH_SD1*%
X130700000Y-87262448D02*
X130700000Y-84700000D01*
X138753334Y-86627000D02*
X137653334Y-87727000D01*
X140700000Y-86927000D02*
X140400000Y-86627000D01*
X130700000Y-84700000D02*
X131610000Y-83790000D01*
X131610000Y-83790000D02*
X132260000Y-83790000D01*
X140400000Y-86627000D02*
X138753334Y-86627000D01*
X137653334Y-87727000D02*
X131164552Y-87727000D01*
X131164552Y-87727000D02*
X130700000Y-87262448D01*
X140700000Y-87462500D02*
X140700000Y-86927000D01*
%TO.N,FLASH_CS*%
X135075000Y-90125000D02*
X134600000Y-90125000D01*
X137742782Y-88100000D02*
X136100000Y-88100000D01*
X135700000Y-88500000D02*
X135700000Y-89500000D01*
X136100000Y-88100000D02*
X135700000Y-88500000D01*
X132260000Y-82520000D02*
X130373000Y-84407000D01*
X135700000Y-89500000D02*
X135075000Y-90125000D01*
D35*
X132075000Y-80800000D02*
X132075000Y-82335000D01*
X132075000Y-82335000D02*
X132260000Y-82520000D01*
D36*
X130373000Y-89673000D02*
X130825000Y-90125000D01*
X130825000Y-90125000D02*
X134600000Y-90125000D01*
X130373000Y-84407000D02*
X130373000Y-89673000D01*
X140037500Y-87200000D02*
X138642782Y-87200000D01*
X138642782Y-87200000D02*
X137742782Y-88100000D01*
X140300000Y-87462500D02*
X140037500Y-87200000D01*
D35*
X132260000Y-80985000D02*
X132075000Y-80800000D01*
%TO.N,+5V*%
X132300000Y-78500000D02*
X131625000Y-78500000D01*
X131625000Y-76600000D02*
X132013408Y-76600000D01*
X142025000Y-77375000D02*
X142000000Y-77400000D01*
X132013408Y-76600000D02*
X132612500Y-77199092D01*
X131625000Y-76600000D02*
X131625000Y-75975000D01*
X141300000Y-74180000D02*
X141300000Y-75875000D01*
X141300000Y-75875000D02*
X142025000Y-76600000D01*
X131625000Y-75975000D02*
X131800000Y-75800000D01*
X132612500Y-77199092D02*
X132612500Y-78187500D01*
X142025000Y-76600000D02*
X142025000Y-77375000D01*
X132612500Y-78187500D02*
X132300000Y-78500000D01*
D36*
%TO.N,+1V1*%
X139800000Y-84450000D02*
X141400000Y-84450000D01*
X144700000Y-86581065D02*
X144700000Y-87462500D01*
X143500000Y-94900000D02*
X144100000Y-95500000D01*
X144981565Y-86299500D02*
X144700000Y-86581065D01*
X142398102Y-85501898D02*
X142398102Y-85835654D01*
X144100000Y-95500000D02*
X144137888Y-95462112D01*
X143500000Y-94337500D02*
X143500000Y-94900000D01*
X141400000Y-84450000D02*
X141400000Y-84503796D01*
X144137888Y-95462112D02*
X144181249Y-95462112D01*
X141400000Y-84503796D02*
X142398102Y-85501898D01*
X142700000Y-86137552D02*
X142700000Y-87462500D01*
X142398102Y-85835654D02*
X142700000Y-86137552D01*
%TO.N,ADC*%
X146337500Y-89900000D02*
X147400000Y-89900000D01*
X147400000Y-89900000D02*
X149500000Y-87800000D01*
X149500000Y-80260000D02*
X148300000Y-79060000D01*
X149500000Y-87800000D02*
X149500000Y-80260000D01*
D35*
%TO.N,Net-(R5-Pad2)*%
X132025000Y-88475000D02*
X132000000Y-88500000D01*
X134600000Y-88475000D02*
X132025000Y-88475000D01*
%TO.N,Net-(D1-K)*%
X148600000Y-98987500D02*
X148512500Y-98987500D01*
X148512500Y-98987500D02*
X146900000Y-97375000D01*
D36*
%TO.N,UART_TX*%
X137647822Y-88900000D02*
X137970916Y-88900000D01*
X138170916Y-88700000D02*
X139462500Y-88700000D01*
X137223911Y-89323911D02*
X137647822Y-88900000D01*
X137970916Y-88900000D02*
X138170916Y-88700000D01*
%TO.N,UART_RX*%
X138366523Y-89100000D02*
X138111650Y-89354873D01*
X139462500Y-89100000D02*
X138366523Y-89100000D01*
X138111650Y-89354873D02*
X138111650Y-89445127D01*
%TO.N,PMOD1*%
X144700000Y-96300000D02*
X144859102Y-96459102D01*
X145100000Y-94337500D02*
X145100000Y-95900000D01*
X145100000Y-95900000D02*
X144700000Y-96300000D01*
X144859102Y-96459102D02*
X144880611Y-96459102D01*
%TO.N,PMOD2*%
X145500000Y-95737000D02*
X145663000Y-95900000D01*
X145500000Y-94337500D02*
X145500000Y-95737000D01*
%TO.N,PMOD3*%
X146337500Y-93500000D02*
X146337500Y-94937500D01*
X146337500Y-94937500D02*
X146400000Y-95000000D01*
%TO.N,PMOD4*%
X146819742Y-93100000D02*
X147400000Y-93680258D01*
X146337500Y-93100000D02*
X146819742Y-93100000D01*
X147400000Y-93680258D02*
X147400000Y-94200000D01*
%TO.N,PMOD5*%
X146337500Y-92700000D02*
X146882190Y-92700000D01*
X148100000Y-94300000D02*
X148100000Y-94900000D01*
X148100000Y-93917810D02*
X148100000Y-94300000D01*
X146882190Y-92700000D02*
X148100000Y-93917810D01*
%TO.N,PMOD6*%
X146944638Y-92300000D02*
X148422319Y-93777681D01*
X148800000Y-94155362D02*
X148800000Y-94400000D01*
X148422319Y-93777681D02*
X148800000Y-94155362D01*
X146337500Y-92300000D02*
X146944638Y-92300000D01*
%TO.N,Net-(D1-A)*%
X149500000Y-91702922D02*
X149500000Y-95500000D01*
X146337500Y-90300000D02*
X147302922Y-90300000D01*
X148897078Y-91100000D02*
X149500000Y-91702922D01*
X149500000Y-95500000D02*
X148600000Y-96400000D01*
X148600000Y-96400000D02*
X148600000Y-97412500D01*
X147302922Y-90300000D02*
X148102922Y-91100000D01*
X148102922Y-91100000D02*
X148897078Y-91100000D01*
%TD*%
%TA.AperFunction,Conductor*%
%TO.N,GND*%
G36*
X144060000Y-106164498D02*
G01*
X143952315Y-106115320D01*
X143845763Y-106100000D01*
X143774237Y-106100000D01*
X143667685Y-106115320D01*
X143560000Y-106164498D01*
X143560000Y-104495501D01*
X143667685Y-104544680D01*
X143774237Y-104560000D01*
X143845763Y-104560000D01*
X143952315Y-104544680D01*
X144060000Y-104495501D01*
X144060000Y-106164498D01*
G37*
%TD.AperFunction*%
%TA.AperFunction,Conductor*%
G36*
X136168297Y-89731399D02*
G01*
X136198032Y-89794625D01*
X136199500Y-89813646D01*
X136199500Y-90663429D01*
X136199501Y-90663439D01*
X136206346Y-90684507D01*
X136210887Y-90703418D01*
X136214354Y-90725304D01*
X136214354Y-90725305D01*
X136224240Y-90744707D01*
X136237135Y-90813377D01*
X136210857Y-90878117D01*
X136153750Y-90918373D01*
X136113755Y-90925000D01*
X135951693Y-90925000D01*
X135951676Y-90925001D01*
X135852392Y-90935144D01*
X135691518Y-90988452D01*
X135691507Y-90988457D01*
X135547271Y-91077424D01*
X135547267Y-91077427D01*
X135427427Y-91197267D01*
X135427424Y-91197271D01*
X135338457Y-91341507D01*
X135338452Y-91341518D01*
X135285144Y-91502393D01*
X135275000Y-91601677D01*
X135275000Y-91650000D01*
X136351000Y-91650000D01*
X136418039Y-91669685D01*
X136463794Y-91722489D01*
X136475000Y-91774000D01*
X136475000Y-92446096D01*
X136507166Y-92505004D01*
X136510000Y-92531362D01*
X136510000Y-94413638D01*
X136500000Y-94447693D01*
X136500000Y-95974999D01*
X136523308Y-95974999D01*
X136523322Y-95974998D01*
X136622607Y-95964855D01*
X136783481Y-95911547D01*
X136783492Y-95911542D01*
X136927728Y-95822575D01*
X136927732Y-95822572D01*
X137047573Y-95702731D01*
X137057081Y-95687317D01*
X137109029Y-95640592D01*
X137177991Y-95629369D01*
X137237544Y-95653608D01*
X137315025Y-95712364D01*
X137449410Y-95765359D01*
X137533856Y-95775500D01*
X137991162Y-95775500D01*
X138058201Y-95795185D01*
X138066635Y-95801114D01*
X138097159Y-95824536D01*
X138097162Y-95824537D01*
X138097163Y-95824538D01*
X138170198Y-95854790D01*
X138243238Y-95885044D01*
X138321619Y-95895363D01*
X138399999Y-95905682D01*
X138400000Y-95905682D01*
X138400001Y-95905682D01*
X138452254Y-95898802D01*
X138556762Y-95885044D01*
X138702841Y-95824536D01*
X138828282Y-95728282D01*
X138924536Y-95602841D01*
X138985044Y-95456762D01*
X139005682Y-95300000D01*
X139003400Y-95282669D01*
X138985044Y-95143239D01*
X138985044Y-95143238D01*
X138924536Y-94997159D01*
X138828282Y-94871718D01*
X138702841Y-94775464D01*
X138617956Y-94740303D01*
X138563554Y-94696463D01*
X138542294Y-94640525D01*
X138540359Y-94624412D01*
X138540359Y-94624410D01*
X138487364Y-94490025D01*
X138487363Y-94490024D01*
X138487363Y-94490023D01*
X138400077Y-94374921D01*
X138344262Y-94332594D01*
X138302739Y-94276402D01*
X138298188Y-94206680D01*
X138332053Y-94145567D01*
X138344258Y-94134990D01*
X138410078Y-94085078D01*
X138497364Y-93969975D01*
X138550359Y-93835590D01*
X138554343Y-93802413D01*
X138581878Y-93738201D01*
X138639759Y-93699066D01*
X138709610Y-93697438D01*
X138769253Y-93733832D01*
X138779236Y-93748547D01*
X138779832Y-93748122D01*
X138785802Y-93756484D01*
X138868514Y-93839196D01*
X138868515Y-93839196D01*
X138868517Y-93839198D01*
X138973607Y-93890573D01*
X139007673Y-93895536D01*
X139041739Y-93900500D01*
X139775500Y-93900500D01*
X139842539Y-93920185D01*
X139888294Y-93972989D01*
X139899500Y-94024500D01*
X139899500Y-94758260D01*
X139909426Y-94826391D01*
X139960803Y-94931485D01*
X140043514Y-95014196D01*
X140043515Y-95014196D01*
X140043517Y-95014198D01*
X140148607Y-95065573D01*
X140163248Y-95067706D01*
X140226748Y-95096847D01*
X140264413Y-95155695D01*
X140264284Y-95225565D01*
X140244640Y-95264719D01*
X140231206Y-95282665D01*
X140231202Y-95282671D01*
X140180910Y-95417513D01*
X140180909Y-95417517D01*
X140174500Y-95477127D01*
X140174500Y-95477134D01*
X140174500Y-95477135D01*
X140174500Y-96122870D01*
X140174501Y-96122876D01*
X140180908Y-96182483D01*
X140218275Y-96282667D01*
X140223259Y-96352359D01*
X140189774Y-96413682D01*
X140128451Y-96447166D01*
X140102093Y-96450000D01*
X139552155Y-96450000D01*
X139492627Y-96456401D01*
X139492620Y-96456403D01*
X139357913Y-96506645D01*
X139357906Y-96506649D01*
X139242812Y-96592809D01*
X139242809Y-96592812D01*
X139156649Y-96707906D01*
X139156644Y-96707916D01*
X139144272Y-96741086D01*
X139102400Y-96797019D01*
X139036935Y-96821435D01*
X138989088Y-96815457D01*
X138897608Y-96785144D01*
X138798322Y-96775000D01*
X138750000Y-96775000D01*
X138750000Y-97475000D01*
X139060000Y-97475000D01*
X139060000Y-97424000D01*
X139079685Y-97356961D01*
X139132489Y-97311206D01*
X139184000Y-97300000D01*
X140426000Y-97300000D01*
X140493039Y-97319685D01*
X140538794Y-97372489D01*
X140550000Y-97424000D01*
X140550000Y-97676000D01*
X140530315Y-97743039D01*
X140477511Y-97788794D01*
X140426000Y-97800000D01*
X139515000Y-97800000D01*
X139515000Y-97851000D01*
X139495315Y-97918039D01*
X139442511Y-97963794D01*
X139391000Y-97975000D01*
X137525001Y-97975000D01*
X137525001Y-97998322D01*
X137535144Y-98097607D01*
X137588452Y-98258481D01*
X137588457Y-98258492D01*
X137677424Y-98402728D01*
X137677427Y-98402732D01*
X137797268Y-98522573D01*
X137812684Y-98532082D01*
X137859408Y-98584031D01*
X137870629Y-98652994D01*
X137846390Y-98712545D01*
X137787636Y-98790023D01*
X137734640Y-98924411D01*
X137733224Y-98936206D01*
X137724500Y-99008856D01*
X137724500Y-99541144D01*
X137728070Y-99570870D01*
X137734640Y-99625588D01*
X137787636Y-99759976D01*
X137874921Y-99875078D01*
X137990023Y-99962363D01*
X137990024Y-99962363D01*
X137990025Y-99962364D01*
X138124410Y-100015359D01*
X138208856Y-100025500D01*
X138208862Y-100025500D01*
X138791138Y-100025500D01*
X138791144Y-100025500D01*
X138875590Y-100015359D01*
X139009975Y-99962364D01*
X139118078Y-99880385D01*
X139183389Y-99855562D01*
X139251753Y-99869989D01*
X139301465Y-99919087D01*
X139306438Y-99929103D01*
X139347793Y-100022764D01*
X139347794Y-100022765D01*
X139427235Y-100102206D01*
X139530009Y-100147585D01*
X139555135Y-100150500D01*
X141044864Y-100150499D01*
X141044879Y-100150497D01*
X141044882Y-100150497D01*
X141069987Y-100147586D01*
X141069988Y-100147585D01*
X141069991Y-100147585D01*
X141172765Y-100102206D01*
X141181067Y-100093903D01*
X141242385Y-100060420D01*
X141312077Y-100065402D01*
X141368012Y-100107272D01*
X141368013Y-100107273D01*
X141442812Y-100207190D01*
X141557906Y-100293350D01*
X141557913Y-100293354D01*
X141692620Y-100343596D01*
X141692627Y-100343598D01*
X141752155Y-100349999D01*
X141752172Y-100350000D01*
X142250000Y-100350000D01*
X142750000Y-100350000D01*
X143247828Y-100350000D01*
X143247844Y-100349999D01*
X143307372Y-100343598D01*
X143307379Y-100343596D01*
X143442086Y-100293354D01*
X143442093Y-100293350D01*
X143557187Y-100207190D01*
X143557188Y-100207189D01*
X143627671Y-100113036D01*
X143683604Y-100071164D01*
X143753296Y-100066180D01*
X143765942Y-100069640D01*
X143902393Y-100114855D01*
X144001683Y-100124999D01*
X144049999Y-100124998D01*
X144050000Y-100124998D01*
X144050000Y-99425000D01*
X144550000Y-99425000D01*
X144550000Y-100124999D01*
X144598308Y-100124999D01*
X144598322Y-100124998D01*
X144697607Y-100114855D01*
X144858481Y-100061547D01*
X144858492Y-100061542D01*
X145002728Y-99972575D01*
X145002732Y-99972572D01*
X145122572Y-99852732D01*
X145122575Y-99852728D01*
X145211542Y-99708492D01*
X145211547Y-99708481D01*
X145264855Y-99547606D01*
X145274999Y-99448322D01*
X145275000Y-99448309D01*
X145275000Y-99425000D01*
X144550000Y-99425000D01*
X144050000Y-99425000D01*
X143740000Y-99425000D01*
X143703681Y-99461319D01*
X143701609Y-99459247D01*
X143667511Y-99488794D01*
X143616000Y-99500000D01*
X142750000Y-99500000D01*
X142750000Y-100350000D01*
X142250000Y-100350000D01*
X142250000Y-99275000D01*
X145925001Y-99275000D01*
X145925001Y-99281582D01*
X145931408Y-99352102D01*
X145931409Y-99352107D01*
X145981981Y-99514396D01*
X146069927Y-99659877D01*
X146190122Y-99780072D01*
X146335604Y-99868019D01*
X146335603Y-99868019D01*
X146497894Y-99918590D01*
X146497892Y-99918590D01*
X146568418Y-99924999D01*
X146649999Y-99924998D01*
X146650000Y-99924998D01*
X146650000Y-99275000D01*
X145925001Y-99275000D01*
X142250000Y-99275000D01*
X142250000Y-99124000D01*
X142269685Y-99056961D01*
X142322489Y-99011206D01*
X142374000Y-99000000D01*
X143285000Y-99000000D01*
X143321319Y-98963681D01*
X143323390Y-98965752D01*
X143357489Y-98936206D01*
X143409000Y-98925000D01*
X145274999Y-98925000D01*
X145274999Y-98901692D01*
X145274998Y-98901677D01*
X145264855Y-98802392D01*
X145211547Y-98641518D01*
X145211542Y-98641507D01*
X145122575Y-98497271D01*
X145122572Y-98497267D01*
X145002731Y-98377426D01*
X144987314Y-98367917D01*
X144940590Y-98315969D01*
X144929369Y-98247006D01*
X144953606Y-98187457D01*
X145012364Y-98109975D01*
X145065359Y-97975590D01*
X145075500Y-97891144D01*
X145075500Y-97358856D01*
X145065359Y-97274410D01*
X145028093Y-97179912D01*
X145021813Y-97110327D01*
X145054150Y-97048391D01*
X145095997Y-97019863D01*
X145103549Y-97016735D01*
X145183452Y-96983638D01*
X145308893Y-96887384D01*
X145405147Y-96761943D01*
X145465655Y-96615864D01*
X145467090Y-96604961D01*
X145495355Y-96541065D01*
X145553678Y-96502593D01*
X145606214Y-96498206D01*
X145662999Y-96505682D01*
X145663000Y-96505682D01*
X145663001Y-96505682D01*
X145719786Y-96498206D01*
X145819762Y-96485044D01*
X145965841Y-96424536D01*
X146091282Y-96328282D01*
X146187536Y-96202841D01*
X146248044Y-96056762D01*
X146267162Y-95911547D01*
X146268682Y-95900001D01*
X146268682Y-95900000D01*
X146258747Y-95824536D01*
X146248044Y-95743238D01*
X146248042Y-95743235D01*
X146248027Y-95743115D01*
X146258792Y-95674079D01*
X146305172Y-95621823D01*
X146372441Y-95602938D01*
X146387140Y-95603989D01*
X146400000Y-95605682D01*
X146556762Y-95585044D01*
X146702841Y-95524536D01*
X146828282Y-95428282D01*
X146924536Y-95302841D01*
X146985044Y-95156762D01*
X147003813Y-95014196D01*
X147005682Y-95000001D01*
X147005682Y-94999999D01*
X146990082Y-94881507D01*
X147000847Y-94812472D01*
X147047227Y-94760216D01*
X147114496Y-94741331D01*
X147160468Y-94750759D01*
X147243238Y-94785044D01*
X147389010Y-94804235D01*
X147452907Y-94832501D01*
X147491378Y-94890826D01*
X147495764Y-94910988D01*
X147514956Y-95056761D01*
X147514956Y-95056762D01*
X147556376Y-95156760D01*
X147575464Y-95202841D01*
X147671718Y-95328282D01*
X147797159Y-95424536D01*
X147943238Y-95485044D01*
X148021619Y-95495363D01*
X148099999Y-95505682D01*
X148100000Y-95505682D01*
X148100001Y-95505682D01*
X148152254Y-95498802D01*
X148256762Y-95485044D01*
X148402841Y-95424536D01*
X148528282Y-95328282D01*
X148624536Y-95202841D01*
X148674641Y-95081876D01*
X148718480Y-95027474D01*
X148784774Y-95005409D01*
X148791872Y-95005747D01*
X148791872Y-95005682D01*
X148800001Y-95005682D01*
X148864739Y-94997159D01*
X148956762Y-94985044D01*
X148964548Y-94981818D01*
X149034016Y-94974350D01*
X149096496Y-95005625D01*
X149132148Y-95065714D01*
X149136000Y-95096380D01*
X149136000Y-95297863D01*
X149116315Y-95364902D01*
X149099681Y-95385544D01*
X148378396Y-96106828D01*
X148358544Y-96122951D01*
X148350059Y-96128495D01*
X148328998Y-96155551D01*
X148323922Y-96161301D01*
X148321299Y-96163925D01*
X148321285Y-96163941D01*
X148308122Y-96182375D01*
X148275444Y-96224359D01*
X148271815Y-96231063D01*
X148268464Y-96237919D01*
X148253278Y-96288925D01*
X148235999Y-96339260D01*
X148234746Y-96346768D01*
X148233800Y-96354354D01*
X148236000Y-96407521D01*
X148236000Y-96593681D01*
X148216315Y-96660720D01*
X148163511Y-96706475D01*
X148157512Y-96709026D01*
X148101486Y-96731120D01*
X148086865Y-96736886D01*
X147973132Y-96823132D01*
X147886886Y-96936865D01*
X147886885Y-96936867D01*
X147868490Y-96983513D01*
X147825583Y-97038656D01*
X147759675Y-97061848D01*
X147691691Y-97045727D01*
X147643215Y-96995409D01*
X147636954Y-96981353D01*
X147618798Y-96932673D01*
X147618793Y-96932664D01*
X147532547Y-96817455D01*
X147532544Y-96817452D01*
X147417335Y-96731206D01*
X147417328Y-96731202D01*
X147282486Y-96680910D01*
X147282485Y-96680909D01*
X147282483Y-96680909D01*
X147222873Y-96674500D01*
X147222863Y-96674500D01*
X146577129Y-96674500D01*
X146577123Y-96674501D01*
X146517516Y-96680908D01*
X146382671Y-96731202D01*
X146382664Y-96731206D01*
X146267455Y-96817452D01*
X146267452Y-96817455D01*
X146181206Y-96932664D01*
X146181202Y-96932671D01*
X146135263Y-97055842D01*
X146130909Y-97067517D01*
X146124500Y-97127127D01*
X146124500Y-97127134D01*
X146124500Y-97127135D01*
X146124500Y-97622870D01*
X146124501Y-97622876D01*
X146130908Y-97682483D01*
X146181202Y-97817328D01*
X146181206Y-97817335D01*
X146267452Y-97932544D01*
X146267455Y-97932547D01*
X146334995Y-97983108D01*
X146376866Y-98039042D01*
X146381850Y-98108733D01*
X146348364Y-98170056D01*
X146324834Y-98188491D01*
X146190122Y-98269927D01*
X146069927Y-98390122D01*
X145981980Y-98535604D01*
X145931409Y-98697893D01*
X145925000Y-98768427D01*
X145925000Y-98775000D01*
X147026000Y-98775000D01*
X147093039Y-98794685D01*
X147138794Y-98847489D01*
X147150000Y-98899000D01*
X147150000Y-99924999D01*
X147231581Y-99924999D01*
X147302102Y-99918591D01*
X147302107Y-99918590D01*
X147464396Y-99868018D01*
X147609877Y-99780072D01*
X147730070Y-99659879D01*
X147771286Y-99591699D01*
X147822813Y-99544511D01*
X147891673Y-99532672D01*
X147956002Y-99559940D01*
X147966825Y-99571179D01*
X147967135Y-99570870D01*
X147973130Y-99576865D01*
X148082601Y-99659879D01*
X148086868Y-99663115D01*
X148219654Y-99715479D01*
X148303098Y-99725500D01*
X148896902Y-99725500D01*
X148980346Y-99715479D01*
X149113132Y-99663115D01*
X149226867Y-99576867D01*
X149313115Y-99463132D01*
X149365479Y-99330346D01*
X149375500Y-99246902D01*
X149375500Y-98728098D01*
X149365479Y-98644654D01*
X149313115Y-98511868D01*
X149313113Y-98511865D01*
X149226867Y-98398132D01*
X149113134Y-98311886D01*
X149106378Y-98308088D01*
X149057589Y-98258075D01*
X149043583Y-98189624D01*
X149068808Y-98124466D01*
X149106378Y-98091912D01*
X149113126Y-98088117D01*
X149113132Y-98088115D01*
X149226867Y-98001867D01*
X149313115Y-97888132D01*
X149365479Y-97755346D01*
X149375500Y-97671902D01*
X149375500Y-97153098D01*
X149365479Y-97069654D01*
X149313115Y-96936868D01*
X149309934Y-96932673D01*
X149226867Y-96823132D01*
X149113134Y-96736886D01*
X149113130Y-96736884D01*
X149048572Y-96711425D01*
X148993428Y-96668519D01*
X148970236Y-96602611D01*
X148986357Y-96534626D01*
X149006378Y-96508394D01*
X149487819Y-96026954D01*
X149549142Y-95993469D01*
X149618834Y-95998453D01*
X149674767Y-96040325D01*
X149699184Y-96105789D01*
X149699500Y-96114635D01*
X149699500Y-109575500D01*
X149679815Y-109642539D01*
X149627011Y-109688294D01*
X149575500Y-109699500D01*
X130424500Y-109699500D01*
X130357461Y-109679815D01*
X130311706Y-109627011D01*
X130300500Y-109575500D01*
X130300500Y-106600000D01*
X132494571Y-106600000D01*
X132514244Y-106812310D01*
X132572596Y-107017392D01*
X132572596Y-107017394D01*
X132667632Y-107208253D01*
X132796127Y-107378406D01*
X132796128Y-107378407D01*
X132953698Y-107522052D01*
X133134981Y-107634298D01*
X133333802Y-107711321D01*
X133543390Y-107750500D01*
X133543392Y-107750500D01*
X133756608Y-107750500D01*
X133756610Y-107750500D01*
X133966198Y-107711321D01*
X134165019Y-107634298D01*
X134346302Y-107522052D01*
X134503872Y-107378407D01*
X134632366Y-107208255D01*
X134686270Y-107100000D01*
X134727403Y-107017394D01*
X134727403Y-107017393D01*
X134727405Y-107017389D01*
X134785756Y-106812310D01*
X134796529Y-106696047D01*
X134822315Y-106631111D01*
X134864622Y-106600804D01*
X134973130Y-106600804D01*
X135009503Y-106621668D01*
X135041693Y-106683681D01*
X135043471Y-106696048D01*
X135054244Y-106812310D01*
X135112596Y-107017392D01*
X135112596Y-107017394D01*
X135207632Y-107208253D01*
X135336127Y-107378406D01*
X135336128Y-107378407D01*
X135493698Y-107522052D01*
X135674981Y-107634298D01*
X135873802Y-107711321D01*
X136083390Y-107750500D01*
X136083392Y-107750500D01*
X136296608Y-107750500D01*
X136296610Y-107750500D01*
X136506198Y-107711321D01*
X136705019Y-107634298D01*
X136886302Y-107522052D01*
X137043872Y-107378407D01*
X137172366Y-107208255D01*
X137226270Y-107100000D01*
X137267403Y-107017394D01*
X137267403Y-107017393D01*
X137267405Y-107017389D01*
X137325756Y-106812310D01*
X137336529Y-106696047D01*
X137362315Y-106631111D01*
X137404622Y-106600804D01*
X137513130Y-106600804D01*
X137549503Y-106621668D01*
X137581693Y-106683681D01*
X137583471Y-106696048D01*
X137594244Y-106812310D01*
X137652596Y-107017392D01*
X137652596Y-107017394D01*
X137747632Y-107208253D01*
X137876127Y-107378406D01*
X137876128Y-107378407D01*
X138033698Y-107522052D01*
X138214981Y-107634298D01*
X138413802Y-107711321D01*
X138623390Y-107750500D01*
X138623392Y-107750500D01*
X138836608Y-107750500D01*
X138836610Y-107750500D01*
X139046198Y-107711321D01*
X139245019Y-107634298D01*
X139426302Y-107522052D01*
X139583872Y-107378407D01*
X139712366Y-107208255D01*
X139766270Y-107100000D01*
X139807403Y-107017394D01*
X139807403Y-107017393D01*
X139807405Y-107017389D01*
X139865756Y-106812310D01*
X139876529Y-106696047D01*
X139902315Y-106631111D01*
X139944622Y-106600804D01*
X140053130Y-106600804D01*
X140089503Y-106621668D01*
X140121693Y-106683681D01*
X140123471Y-106696048D01*
X140134244Y-106812310D01*
X140192596Y-107017392D01*
X140192596Y-107017394D01*
X140287632Y-107208253D01*
X140416127Y-107378406D01*
X140416128Y-107378407D01*
X140573698Y-107522052D01*
X140754981Y-107634298D01*
X140953802Y-107711321D01*
X141163390Y-107750500D01*
X141163392Y-107750500D01*
X141376608Y-107750500D01*
X141376610Y-107750500D01*
X141586198Y-107711321D01*
X141785019Y-107634298D01*
X141966302Y-107522052D01*
X142123872Y-107378407D01*
X142252366Y-107208255D01*
X142319325Y-107073781D01*
X142366825Y-107022548D01*
X142434488Y-107005126D01*
X142500828Y-107027051D01*
X142542705Y-107076651D01*
X142636399Y-107277578D01*
X142771894Y-107471082D01*
X142938917Y-107638105D01*
X143132421Y-107773600D01*
X143346507Y-107873429D01*
X143346516Y-107873433D01*
X143560000Y-107930634D01*
X143560000Y-107035501D01*
X143667685Y-107084680D01*
X143774237Y-107100000D01*
X143845763Y-107100000D01*
X143952315Y-107084680D01*
X144060000Y-107035501D01*
X144060000Y-107930633D01*
X144273483Y-107873433D01*
X144273492Y-107873429D01*
X144487578Y-107773600D01*
X144681082Y-107638105D01*
X144848105Y-107471082D01*
X144983600Y-107277578D01*
X145077294Y-107076651D01*
X145123466Y-107024212D01*
X145190660Y-107005060D01*
X145257541Y-107025276D01*
X145300676Y-107073785D01*
X145367632Y-107208253D01*
X145496127Y-107378406D01*
X145496128Y-107378407D01*
X145653698Y-107522052D01*
X145834981Y-107634298D01*
X146033802Y-107711321D01*
X146243390Y-107750500D01*
X146243392Y-107750500D01*
X146456608Y-107750500D01*
X146456610Y-107750500D01*
X146666198Y-107711321D01*
X146865019Y-107634298D01*
X147046302Y-107522052D01*
X147203872Y-107378407D01*
X147332366Y-107208255D01*
X147386270Y-107100000D01*
X147427403Y-107017394D01*
X147427403Y-107017393D01*
X147427405Y-107017389D01*
X147485756Y-106812310D01*
X147505429Y-106600000D01*
X147485756Y-106387690D01*
X147427405Y-106182611D01*
X147427403Y-106182606D01*
X147427403Y-106182605D01*
X147332367Y-105991746D01*
X147203872Y-105821593D01*
X147046302Y-105677948D01*
X146865019Y-105565702D01*
X146865017Y-105565701D01*
X146765608Y-105527190D01*
X146666198Y-105488679D01*
X146493456Y-105456387D01*
X146431176Y-105424719D01*
X146395903Y-105364407D01*
X146398837Y-105294599D01*
X146439046Y-105237459D01*
X146503764Y-105211128D01*
X146516233Y-105210499D01*
X147244864Y-105210499D01*
X147244879Y-105210497D01*
X147244882Y-105210497D01*
X147269987Y-105207586D01*
X147269988Y-105207585D01*
X147269991Y-105207585D01*
X147372765Y-105162206D01*
X147452206Y-105082765D01*
X147497585Y-104979991D01*
X147500500Y-104954865D01*
X147500499Y-103165136D01*
X147500497Y-103165117D01*
X147497586Y-103140012D01*
X147497585Y-103140010D01*
X147497585Y-103140009D01*
X147452206Y-103037235D01*
X147372765Y-102957794D01*
X147352124Y-102948680D01*
X147269992Y-102912415D01*
X147244865Y-102909500D01*
X145455143Y-102909500D01*
X145455117Y-102909502D01*
X145430012Y-102912413D01*
X145430008Y-102912415D01*
X145327235Y-102957793D01*
X145247794Y-103037234D01*
X145202415Y-103140006D01*
X145202415Y-103140008D01*
X145199500Y-103165131D01*
X145199500Y-103297481D01*
X145179815Y-103364520D01*
X145127011Y-103410275D01*
X145057853Y-103420219D01*
X144994297Y-103391194D01*
X144973925Y-103368604D01*
X144848113Y-103188926D01*
X144848108Y-103188920D01*
X144681082Y-103021894D01*
X144487578Y-102886399D01*
X144273492Y-102786570D01*
X144273486Y-102786567D01*
X144060000Y-102729364D01*
X144060000Y-103624498D01*
X143952315Y-103575320D01*
X143845763Y-103560000D01*
X143774237Y-103560000D01*
X143667685Y-103575320D01*
X143560000Y-103624498D01*
X143560000Y-102729364D01*
X143559999Y-102729364D01*
X143346513Y-102786567D01*
X143346507Y-102786570D01*
X143132422Y-102886399D01*
X143132420Y-102886400D01*
X142938926Y-103021886D01*
X142938920Y-103021891D01*
X142771891Y-103188920D01*
X142771886Y-103188926D01*
X142636400Y-103382420D01*
X142636399Y-103382422D01*
X142542705Y-103583348D01*
X142496532Y-103635787D01*
X142429339Y-103654939D01*
X142362457Y-103634723D01*
X142319324Y-103586216D01*
X142252366Y-103451745D01*
X142228558Y-103420219D01*
X142123872Y-103281593D01*
X141966302Y-103137948D01*
X141785019Y-103025702D01*
X141785017Y-103025701D01*
X141685608Y-102987190D01*
X141586198Y-102948679D01*
X141376610Y-102909500D01*
X141163390Y-102909500D01*
X140953802Y-102948679D01*
X140953799Y-102948679D01*
X140953799Y-102948680D01*
X140754982Y-103025701D01*
X140754980Y-103025702D01*
X140573699Y-103137947D01*
X140416127Y-103281593D01*
X140287632Y-103451746D01*
X140192596Y-103642605D01*
X140192596Y-103642607D01*
X140134244Y-103847689D01*
X140123471Y-103963951D01*
X140097685Y-104028888D01*
X140053130Y-104060804D01*
X140089503Y-104081668D01*
X140121693Y-104143681D01*
X140123471Y-104156048D01*
X140134244Y-104272310D01*
X140192596Y-104477392D01*
X140192596Y-104477394D01*
X140287632Y-104668253D01*
X140350418Y-104751394D01*
X140416128Y-104838407D01*
X140573698Y-104982052D01*
X140754981Y-105094298D01*
X140953802Y-105171321D01*
X141150613Y-105208111D01*
X141212893Y-105239779D01*
X141248166Y-105300092D01*
X141245232Y-105369900D01*
X141205023Y-105427040D01*
X141150613Y-105451888D01*
X140953802Y-105488679D01*
X140953799Y-105488679D01*
X140953799Y-105488680D01*
X140754982Y-105565701D01*
X140754980Y-105565702D01*
X140573699Y-105677947D01*
X140416127Y-105821593D01*
X140287632Y-105991746D01*
X140192596Y-106182605D01*
X140192596Y-106182607D01*
X140134244Y-106387689D01*
X140123471Y-106503951D01*
X140097685Y-106568888D01*
X140053130Y-106600804D01*
X139944622Y-106600804D01*
X139946869Y-106599194D01*
X139910497Y-106578331D01*
X139878307Y-106516318D01*
X139876529Y-106503951D01*
X139875849Y-106496613D01*
X139865756Y-106387690D01*
X139807405Y-106182611D01*
X139807403Y-106182606D01*
X139807403Y-106182605D01*
X139712367Y-105991746D01*
X139583872Y-105821593D01*
X139426302Y-105677948D01*
X139245019Y-105565702D01*
X139245017Y-105565701D01*
X139145608Y-105527190D01*
X139046198Y-105488679D01*
X138849385Y-105451888D01*
X138787106Y-105420221D01*
X138751833Y-105359908D01*
X138754767Y-105290100D01*
X138794976Y-105232960D01*
X138849384Y-105208111D01*
X139046198Y-105171321D01*
X139245019Y-105094298D01*
X139426302Y-104982052D01*
X139583872Y-104838407D01*
X139712366Y-104668255D01*
X139766270Y-104560000D01*
X139807403Y-104477394D01*
X139807403Y-104477393D01*
X139807405Y-104477389D01*
X139865756Y-104272310D01*
X139876529Y-104156047D01*
X139902315Y-104091111D01*
X139946869Y-104059194D01*
X139910497Y-104038331D01*
X139878307Y-103976318D01*
X139876529Y-103963951D01*
X139875849Y-103956613D01*
X139865756Y-103847690D01*
X139807405Y-103642611D01*
X139807403Y-103642606D01*
X139807403Y-103642605D01*
X139712367Y-103451746D01*
X139583872Y-103281593D01*
X139426302Y-103137948D01*
X139245019Y-103025702D01*
X139245017Y-103025701D01*
X139145608Y-102987190D01*
X139046198Y-102948679D01*
X138836610Y-102909500D01*
X138623390Y-102909500D01*
X138413802Y-102948679D01*
X138413799Y-102948679D01*
X138413799Y-102948680D01*
X138214982Y-103025701D01*
X138214980Y-103025702D01*
X138033699Y-103137947D01*
X137876127Y-103281593D01*
X137747632Y-103451746D01*
X137652596Y-103642605D01*
X137652596Y-103642607D01*
X137594244Y-103847689D01*
X137583471Y-103963951D01*
X137557685Y-104028888D01*
X137513130Y-104060804D01*
X137549503Y-104081668D01*
X137581693Y-104143681D01*
X137583471Y-104156048D01*
X137594244Y-104272310D01*
X137652596Y-104477392D01*
X137652596Y-104477394D01*
X137747632Y-104668253D01*
X137810418Y-104751394D01*
X137876128Y-104838407D01*
X138033698Y-104982052D01*
X138214981Y-105094298D01*
X138413802Y-105171321D01*
X138610613Y-105208111D01*
X138672893Y-105239779D01*
X138708166Y-105300092D01*
X138705232Y-105369900D01*
X138665023Y-105427040D01*
X138610613Y-105451888D01*
X138413802Y-105488679D01*
X138413799Y-105488679D01*
X138413799Y-105488680D01*
X138214982Y-105565701D01*
X138214980Y-105565702D01*
X138033699Y-105677947D01*
X137876127Y-105821593D01*
X137747632Y-105991746D01*
X137652596Y-106182605D01*
X137652596Y-106182607D01*
X137594244Y-106387689D01*
X137583471Y-106503951D01*
X137557685Y-106568888D01*
X137513130Y-106600804D01*
X137404622Y-106600804D01*
X137406869Y-106599194D01*
X137370497Y-106578331D01*
X137338307Y-106516318D01*
X137336529Y-106503951D01*
X137335849Y-106496613D01*
X137325756Y-106387690D01*
X137267405Y-106182611D01*
X137267403Y-106182606D01*
X137267403Y-106182605D01*
X137172367Y-105991746D01*
X137043872Y-105821593D01*
X136886302Y-105677948D01*
X136705019Y-105565702D01*
X136705017Y-105565701D01*
X136605608Y-105527190D01*
X136506198Y-105488679D01*
X136309385Y-105451888D01*
X136247106Y-105420221D01*
X136211833Y-105359908D01*
X136214767Y-105290100D01*
X136254976Y-105232960D01*
X136309384Y-105208111D01*
X136506198Y-105171321D01*
X136705019Y-105094298D01*
X136886302Y-104982052D01*
X137043872Y-104838407D01*
X137172366Y-104668255D01*
X137226270Y-104560000D01*
X137267403Y-104477394D01*
X137267403Y-104477393D01*
X137267405Y-104477389D01*
X137325756Y-104272310D01*
X137336529Y-104156047D01*
X137362315Y-104091111D01*
X137406869Y-104059194D01*
X137370497Y-104038331D01*
X137338307Y-103976318D01*
X137336529Y-103963951D01*
X137335849Y-103956613D01*
X137325756Y-103847690D01*
X137267405Y-103642611D01*
X137267403Y-103642606D01*
X137267403Y-103642605D01*
X137172367Y-103451746D01*
X137043872Y-103281593D01*
X136886302Y-103137948D01*
X136705019Y-103025702D01*
X136705017Y-103025701D01*
X136605608Y-102987190D01*
X136506198Y-102948679D01*
X136296610Y-102909500D01*
X136083390Y-102909500D01*
X135873802Y-102948679D01*
X135873799Y-102948679D01*
X135873799Y-102948680D01*
X135674982Y-103025701D01*
X135674980Y-103025702D01*
X135493699Y-103137947D01*
X135336127Y-103281593D01*
X135207632Y-103451746D01*
X135112596Y-103642605D01*
X135112596Y-103642607D01*
X135054244Y-103847689D01*
X135043471Y-103963951D01*
X135017685Y-104028888D01*
X134973130Y-104060804D01*
X135009503Y-104081668D01*
X135041693Y-104143681D01*
X135043471Y-104156048D01*
X135054244Y-104272310D01*
X135112596Y-104477392D01*
X135112596Y-104477394D01*
X135207632Y-104668253D01*
X135270418Y-104751394D01*
X135336128Y-104838407D01*
X135493698Y-104982052D01*
X135674981Y-105094298D01*
X135873802Y-105171321D01*
X136070613Y-105208111D01*
X136132893Y-105239779D01*
X136168166Y-105300092D01*
X136165232Y-105369900D01*
X136125023Y-105427040D01*
X136070613Y-105451888D01*
X135873802Y-105488679D01*
X135873799Y-105488679D01*
X135873799Y-105488680D01*
X135674982Y-105565701D01*
X135674980Y-105565702D01*
X135493699Y-105677947D01*
X135336127Y-105821593D01*
X135207632Y-105991746D01*
X135112596Y-106182605D01*
X135112596Y-106182607D01*
X135054244Y-106387689D01*
X135043471Y-106503951D01*
X135017685Y-106568888D01*
X134973130Y-106600804D01*
X134864622Y-106600804D01*
X134866869Y-106599194D01*
X134830497Y-106578331D01*
X134798307Y-106516318D01*
X134796529Y-106503951D01*
X134795849Y-106496613D01*
X134785756Y-106387690D01*
X134727405Y-106182611D01*
X134727403Y-106182606D01*
X134727403Y-106182605D01*
X134632367Y-105991746D01*
X134503872Y-105821593D01*
X134346302Y-105677948D01*
X134165019Y-105565702D01*
X134165017Y-105565701D01*
X134065608Y-105527190D01*
X133966198Y-105488679D01*
X133769385Y-105451888D01*
X133707106Y-105420221D01*
X133671833Y-105359908D01*
X133674767Y-105290100D01*
X133714976Y-105232960D01*
X133769384Y-105208111D01*
X133966198Y-105171321D01*
X134165019Y-105094298D01*
X134346302Y-104982052D01*
X134503872Y-104838407D01*
X134632366Y-104668255D01*
X134686270Y-104560000D01*
X134727403Y-104477394D01*
X134727403Y-104477393D01*
X134727405Y-104477389D01*
X134785756Y-104272310D01*
X134796529Y-104156047D01*
X134822315Y-104091111D01*
X134866869Y-104059194D01*
X134830497Y-104038331D01*
X134798307Y-103976318D01*
X134796529Y-103963951D01*
X134795849Y-103956613D01*
X134785756Y-103847690D01*
X134727405Y-103642611D01*
X134727403Y-103642606D01*
X134727403Y-103642605D01*
X134632367Y-103451746D01*
X134503872Y-103281593D01*
X134346302Y-103137948D01*
X134165019Y-103025702D01*
X134165017Y-103025701D01*
X134065608Y-102987190D01*
X133966198Y-102948679D01*
X133756610Y-102909500D01*
X133543390Y-102909500D01*
X133333802Y-102948679D01*
X133333799Y-102948679D01*
X133333799Y-102948680D01*
X133134982Y-103025701D01*
X133134980Y-103025702D01*
X132953699Y-103137947D01*
X132796127Y-103281593D01*
X132667632Y-103451746D01*
X132572596Y-103642605D01*
X132572596Y-103642607D01*
X132514244Y-103847689D01*
X132494571Y-104059999D01*
X132494571Y-104060000D01*
X132514244Y-104272310D01*
X132572596Y-104477392D01*
X132572596Y-104477394D01*
X132667632Y-104668253D01*
X132730418Y-104751394D01*
X132796128Y-104838407D01*
X132953698Y-104982052D01*
X133134981Y-105094298D01*
X133333802Y-105171321D01*
X133530613Y-105208111D01*
X133592893Y-105239779D01*
X133628166Y-105300092D01*
X133625232Y-105369900D01*
X133585023Y-105427040D01*
X133530613Y-105451888D01*
X133333802Y-105488679D01*
X133333799Y-105488679D01*
X133333799Y-105488680D01*
X133134982Y-105565701D01*
X133134980Y-105565702D01*
X132953699Y-105677947D01*
X132796127Y-105821593D01*
X132667632Y-105991746D01*
X132572596Y-106182605D01*
X132572596Y-106182607D01*
X132514244Y-106387689D01*
X132494571Y-106599999D01*
X132494571Y-106600000D01*
X130300500Y-106600000D01*
X130300500Y-97475000D01*
X137525000Y-97475000D01*
X138250000Y-97475000D01*
X138250000Y-96775000D01*
X138249999Y-96774999D01*
X138201693Y-96775000D01*
X138201675Y-96775001D01*
X138102392Y-96785144D01*
X137941518Y-96838452D01*
X137941507Y-96838457D01*
X137797271Y-96927424D01*
X137797267Y-96927427D01*
X137677427Y-97047267D01*
X137677424Y-97047271D01*
X137588457Y-97191507D01*
X137588452Y-97191518D01*
X137535144Y-97352393D01*
X137525000Y-97451677D01*
X137525000Y-97475000D01*
X130300500Y-97475000D01*
X130300500Y-95250000D01*
X135300001Y-95250000D01*
X135300001Y-95298322D01*
X135310144Y-95397607D01*
X135363452Y-95558481D01*
X135363457Y-95558492D01*
X135452424Y-95702728D01*
X135452427Y-95702732D01*
X135572267Y-95822572D01*
X135572271Y-95822575D01*
X135716507Y-95911542D01*
X135716518Y-95911547D01*
X135877393Y-95964855D01*
X135976683Y-95974999D01*
X136000000Y-95974998D01*
X136000000Y-95250000D01*
X135300001Y-95250000D01*
X130300500Y-95250000D01*
X130300500Y-94750000D01*
X135300000Y-94750000D01*
X136000000Y-94750000D01*
X136000000Y-94046362D01*
X136010000Y-94012306D01*
X136010000Y-93710000D01*
X135310001Y-93710000D01*
X135310001Y-93758322D01*
X135320144Y-93857607D01*
X135373452Y-94018481D01*
X135373457Y-94018492D01*
X135459080Y-94157307D01*
X135477521Y-94224699D01*
X135456599Y-94291363D01*
X135453130Y-94296126D01*
X135363457Y-94441507D01*
X135363452Y-94441518D01*
X135310144Y-94602393D01*
X135300000Y-94701677D01*
X135300000Y-94750000D01*
X130300500Y-94750000D01*
X130300500Y-93181052D01*
X130320185Y-93114013D01*
X130372989Y-93068258D01*
X130442147Y-93058314D01*
X130505703Y-93087339D01*
X130542885Y-93144161D01*
X130556981Y-93189396D01*
X130644927Y-93334877D01*
X130765122Y-93455072D01*
X130910604Y-93543019D01*
X130910603Y-93543019D01*
X131072894Y-93593590D01*
X131072893Y-93593590D01*
X131143427Y-93599999D01*
X131749999Y-93599999D01*
X131750000Y-93599998D01*
X131750000Y-92950000D01*
X132250000Y-92950000D01*
X132250000Y-93599999D01*
X132856581Y-93599999D01*
X132927102Y-93593591D01*
X132927107Y-93593590D01*
X133089396Y-93543018D01*
X133234877Y-93455072D01*
X133355072Y-93334877D01*
X133443019Y-93189395D01*
X133493590Y-93027106D01*
X133500000Y-92956572D01*
X133500000Y-92950000D01*
X132250000Y-92950000D01*
X131750000Y-92950000D01*
X131750000Y-91800000D01*
X132250000Y-91800000D01*
X132250000Y-92450000D01*
X133499999Y-92450000D01*
X133499999Y-92443417D01*
X133493591Y-92372897D01*
X133493590Y-92372892D01*
X133443018Y-92210603D01*
X133406382Y-92150000D01*
X135275001Y-92150000D01*
X135275001Y-92198322D01*
X135285144Y-92297607D01*
X135338452Y-92458481D01*
X135338457Y-92458492D01*
X135427424Y-92602728D01*
X135427427Y-92602732D01*
X135438700Y-92614005D01*
X135472185Y-92675328D01*
X135467201Y-92745020D01*
X135456557Y-92766783D01*
X135373457Y-92901507D01*
X135373452Y-92901518D01*
X135320144Y-93062393D01*
X135310000Y-93161677D01*
X135310000Y-93210000D01*
X136010000Y-93210000D01*
X136010000Y-92913903D01*
X135977834Y-92854996D01*
X135975000Y-92828638D01*
X135975000Y-92150000D01*
X135275001Y-92150000D01*
X133406382Y-92150000D01*
X133355072Y-92065122D01*
X133234877Y-91944927D01*
X133089395Y-91856980D01*
X133089396Y-91856980D01*
X132927105Y-91806409D01*
X132927106Y-91806409D01*
X132856572Y-91800000D01*
X132250000Y-91800000D01*
X131750000Y-91800000D01*
X131143417Y-91800000D01*
X131072897Y-91806408D01*
X131072892Y-91806409D01*
X130910603Y-91856981D01*
X130765122Y-91944927D01*
X130644927Y-92065122D01*
X130556981Y-92210603D01*
X130542885Y-92255839D01*
X130504147Y-92313986D01*
X130440122Y-92341960D01*
X130371137Y-92330878D01*
X130319094Y-92284259D01*
X130300500Y-92218948D01*
X130300500Y-90414635D01*
X130320185Y-90347596D01*
X130372989Y-90301841D01*
X130442147Y-90291897D01*
X130505703Y-90320922D01*
X130512181Y-90326954D01*
X130531824Y-90346597D01*
X130547951Y-90366456D01*
X130553490Y-90374934D01*
X130553494Y-90374939D01*
X130580548Y-90395996D01*
X130586312Y-90401087D01*
X130588936Y-90403711D01*
X130588939Y-90403713D01*
X130588941Y-90403715D01*
X130607378Y-90416879D01*
X130649360Y-90449555D01*
X130649362Y-90449555D01*
X130656101Y-90453203D01*
X130662919Y-90456536D01*
X130713942Y-90471726D01*
X130741500Y-90481186D01*
X130764259Y-90489000D01*
X130764266Y-90489000D01*
X130771818Y-90490260D01*
X130779353Y-90491199D01*
X130779354Y-90491200D01*
X130779354Y-90491199D01*
X130779355Y-90491200D01*
X130832537Y-90489000D01*
X133765894Y-90489000D01*
X133832933Y-90508685D01*
X133878688Y-90561489D01*
X133880806Y-90566604D01*
X133881205Y-90567334D01*
X133967452Y-90682544D01*
X133967455Y-90682547D01*
X134082664Y-90768793D01*
X134082671Y-90768797D01*
X134121433Y-90783254D01*
X134217517Y-90819091D01*
X134277127Y-90825500D01*
X134922872Y-90825499D01*
X134982483Y-90819091D01*
X135117331Y-90768796D01*
X135232546Y-90682546D01*
X135318796Y-90567331D01*
X135369091Y-90432483D01*
X135372184Y-90403715D01*
X135374872Y-90378716D01*
X135401610Y-90314165D01*
X135410471Y-90304300D01*
X135921601Y-89793170D01*
X135941455Y-89777048D01*
X135949939Y-89771506D01*
X135971010Y-89744431D01*
X135976087Y-89738684D01*
X135978714Y-89736059D01*
X135978724Y-89736044D01*
X135980883Y-89733498D01*
X135982033Y-89732740D01*
X135982360Y-89732414D01*
X135982427Y-89732481D01*
X136039235Y-89695068D01*
X136109100Y-89694285D01*
X136168297Y-89731399D01*
G37*
%TD.AperFunction*%
%TA.AperFunction,Conductor*%
G36*
X145339039Y-88188910D02*
G01*
X145339404Y-88187730D01*
X145348600Y-88190571D01*
X145348604Y-88190571D01*
X145348607Y-88190573D01*
X145416740Y-88200500D01*
X145416745Y-88200500D01*
X145475500Y-88200500D01*
X145542539Y-88220185D01*
X145588294Y-88272989D01*
X145599500Y-88324500D01*
X145599500Y-88383260D01*
X145609425Y-88451388D01*
X145612270Y-88460592D01*
X145609294Y-88461511D01*
X145618323Y-88514425D01*
X145611094Y-88539044D01*
X145612270Y-88539408D01*
X145609425Y-88548611D01*
X145599500Y-88616739D01*
X145599500Y-88783260D01*
X145609425Y-88851388D01*
X145612270Y-88860592D01*
X145609294Y-88861511D01*
X145618323Y-88914425D01*
X145611094Y-88939044D01*
X145612270Y-88939408D01*
X145609425Y-88948611D01*
X145599500Y-89016739D01*
X145599500Y-89183260D01*
X145609425Y-89251388D01*
X145612270Y-89260592D01*
X145609294Y-89261511D01*
X145618323Y-89314425D01*
X145611094Y-89339044D01*
X145612270Y-89339408D01*
X145609425Y-89348611D01*
X145599500Y-89416739D01*
X145599500Y-89583260D01*
X145609425Y-89651388D01*
X145612270Y-89660592D01*
X145609294Y-89661511D01*
X145618323Y-89714425D01*
X145611094Y-89739044D01*
X145612270Y-89739408D01*
X145609425Y-89748611D01*
X145599500Y-89816739D01*
X145599500Y-89983260D01*
X145609425Y-90051388D01*
X145612270Y-90060592D01*
X145609294Y-90061511D01*
X145618323Y-90114425D01*
X145611094Y-90139044D01*
X145612270Y-90139408D01*
X145609425Y-90148611D01*
X145599500Y-90216739D01*
X145599500Y-90383260D01*
X145609425Y-90451388D01*
X145612270Y-90460592D01*
X145609294Y-90461511D01*
X145618323Y-90514425D01*
X145611094Y-90539044D01*
X145612270Y-90539408D01*
X145609425Y-90548611D01*
X145599500Y-90616739D01*
X145599500Y-90783260D01*
X145609425Y-90851388D01*
X145612270Y-90860592D01*
X145609294Y-90861511D01*
X145618323Y-90914425D01*
X145611094Y-90939044D01*
X145612270Y-90939408D01*
X145609425Y-90948611D01*
X145599500Y-91016739D01*
X145599500Y-91183260D01*
X145609425Y-91251388D01*
X145612270Y-91260592D01*
X145609294Y-91261511D01*
X145618323Y-91314425D01*
X145611094Y-91339044D01*
X145612270Y-91339408D01*
X145609425Y-91348611D01*
X145599500Y-91416739D01*
X145599500Y-91583260D01*
X145609425Y-91651388D01*
X145612270Y-91660592D01*
X145609294Y-91661511D01*
X145618323Y-91714425D01*
X145611094Y-91739044D01*
X145612270Y-91739408D01*
X145609425Y-91748611D01*
X145599500Y-91816739D01*
X145599500Y-91983260D01*
X145609425Y-92051388D01*
X145612270Y-92060592D01*
X145609294Y-92061511D01*
X145618323Y-92114425D01*
X145611094Y-92139044D01*
X145612270Y-92139408D01*
X145609425Y-92148611D01*
X145599500Y-92216739D01*
X145599500Y-92383260D01*
X145609425Y-92451388D01*
X145612270Y-92460592D01*
X145609294Y-92461511D01*
X145618323Y-92514425D01*
X145611094Y-92539044D01*
X145612270Y-92539408D01*
X145609425Y-92548611D01*
X145599500Y-92616739D01*
X145599500Y-92783260D01*
X145609425Y-92851388D01*
X145612270Y-92860592D01*
X145609294Y-92861511D01*
X145618323Y-92914425D01*
X145611094Y-92939044D01*
X145612270Y-92939408D01*
X145609425Y-92948611D01*
X145599500Y-93016739D01*
X145599500Y-93183260D01*
X145609425Y-93251388D01*
X145612270Y-93260592D01*
X145609294Y-93261511D01*
X145618323Y-93314425D01*
X145611094Y-93339044D01*
X145612270Y-93339408D01*
X145609425Y-93348611D01*
X145599500Y-93416739D01*
X145599500Y-93475500D01*
X145579815Y-93542539D01*
X145527011Y-93588294D01*
X145475500Y-93599500D01*
X145416740Y-93599500D01*
X145348607Y-93609427D01*
X145348605Y-93609427D01*
X145348254Y-93609479D01*
X145279076Y-93599665D01*
X145226187Y-93554009D01*
X145206376Y-93487007D01*
X145209271Y-93464857D01*
X145208983Y-93464820D01*
X145230682Y-93300001D01*
X145230682Y-93299998D01*
X145213417Y-93168856D01*
X145210044Y-93143238D01*
X145149536Y-92997159D01*
X145053282Y-92871718D01*
X145034345Y-92857187D01*
X145002956Y-92833101D01*
X144961754Y-92776673D01*
X144957599Y-92706927D01*
X144962261Y-92691392D01*
X144993597Y-92607376D01*
X144993598Y-92607372D01*
X144999999Y-92547844D01*
X145000000Y-92547827D01*
X145000000Y-91150000D01*
X143150000Y-91150000D01*
X143150000Y-93000000D01*
X143917419Y-93000000D01*
X143984458Y-93019685D01*
X144030213Y-93072489D01*
X144040358Y-93140185D01*
X144039956Y-93143237D01*
X144039956Y-93143238D01*
X144037528Y-93161677D01*
X144019318Y-93299998D01*
X144019318Y-93300001D01*
X144040292Y-93459315D01*
X144029526Y-93528350D01*
X143983146Y-93580606D01*
X143917353Y-93599500D01*
X143816739Y-93599500D01*
X143748611Y-93609425D01*
X143739408Y-93612270D01*
X143738488Y-93609294D01*
X143685575Y-93618323D01*
X143660955Y-93611094D01*
X143660592Y-93612270D01*
X143651388Y-93609425D01*
X143583261Y-93599500D01*
X143583260Y-93599500D01*
X143416740Y-93599500D01*
X143416739Y-93599500D01*
X143348611Y-93609425D01*
X143339408Y-93612270D01*
X143338488Y-93609294D01*
X143285575Y-93618323D01*
X143260955Y-93611094D01*
X143260592Y-93612270D01*
X143251388Y-93609425D01*
X143183261Y-93599500D01*
X143183260Y-93599500D01*
X143016740Y-93599500D01*
X143016739Y-93599500D01*
X142948611Y-93609425D01*
X142939408Y-93612270D01*
X142938488Y-93609294D01*
X142885575Y-93618323D01*
X142860955Y-93611094D01*
X142860592Y-93612270D01*
X142851388Y-93609425D01*
X142783261Y-93599500D01*
X142783260Y-93599500D01*
X142616740Y-93599500D01*
X142616739Y-93599500D01*
X142548611Y-93609425D01*
X142539408Y-93612270D01*
X142538488Y-93609294D01*
X142485575Y-93618323D01*
X142460955Y-93611094D01*
X142460592Y-93612270D01*
X142451396Y-93609428D01*
X142451393Y-93609427D01*
X142451389Y-93609426D01*
X142451388Y-93609426D01*
X142423615Y-93605379D01*
X142360114Y-93576234D01*
X142342694Y-93557604D01*
X142342567Y-93557437D01*
X142222095Y-93466079D01*
X142081443Y-93410613D01*
X141993054Y-93400000D01*
X141806946Y-93400000D01*
X141718556Y-93410613D01*
X141577904Y-93466079D01*
X141457429Y-93557439D01*
X141457298Y-93557613D01*
X141457137Y-93557731D01*
X141451437Y-93563432D01*
X141450580Y-93562575D01*
X141401101Y-93599129D01*
X141376385Y-93605379D01*
X141348610Y-93609426D01*
X141339408Y-93612270D01*
X141338488Y-93609294D01*
X141285575Y-93618323D01*
X141260955Y-93611094D01*
X141260592Y-93612270D01*
X141251388Y-93609425D01*
X141183261Y-93599500D01*
X141183260Y-93599500D01*
X141016740Y-93599500D01*
X141016739Y-93599500D01*
X140948611Y-93609425D01*
X140939408Y-93612270D01*
X140938488Y-93609294D01*
X140885575Y-93618323D01*
X140860955Y-93611094D01*
X140860592Y-93612270D01*
X140851388Y-93609425D01*
X140783261Y-93599500D01*
X140783260Y-93599500D01*
X140616740Y-93599500D01*
X140616739Y-93599500D01*
X140548611Y-93609425D01*
X140539408Y-93612270D01*
X140538488Y-93609294D01*
X140485575Y-93618323D01*
X140460955Y-93611094D01*
X140460592Y-93612270D01*
X140451388Y-93609425D01*
X140383261Y-93599500D01*
X140383260Y-93599500D01*
X140324500Y-93599500D01*
X140257461Y-93579815D01*
X140211706Y-93527011D01*
X140200500Y-93475500D01*
X140200500Y-93416745D01*
X140200500Y-93416740D01*
X140190573Y-93348607D01*
X140190571Y-93348604D01*
X140190571Y-93348600D01*
X140187730Y-93339404D01*
X140190709Y-93338483D01*
X140181673Y-93285610D01*
X140188910Y-93260960D01*
X140187730Y-93260596D01*
X140190571Y-93251399D01*
X140190571Y-93251396D01*
X140190573Y-93251393D01*
X140200500Y-93183260D01*
X140200500Y-93016740D01*
X140190573Y-92948607D01*
X140190571Y-92948604D01*
X140190571Y-92948600D01*
X140187730Y-92939404D01*
X140190709Y-92938483D01*
X140181673Y-92885610D01*
X140188910Y-92860960D01*
X140187730Y-92860596D01*
X140190571Y-92851399D01*
X140190571Y-92851396D01*
X140190573Y-92851393D01*
X140200500Y-92783260D01*
X140200500Y-92616740D01*
X140190573Y-92548607D01*
X140190571Y-92548604D01*
X140190571Y-92548600D01*
X140187730Y-92539404D01*
X140190709Y-92538483D01*
X140181673Y-92485610D01*
X140188910Y-92460960D01*
X140187730Y-92460596D01*
X140190571Y-92451399D01*
X140190571Y-92451396D01*
X140190573Y-92451393D01*
X140200500Y-92383260D01*
X140200500Y-92216740D01*
X140190573Y-92148607D01*
X140190571Y-92148604D01*
X140190571Y-92148600D01*
X140187730Y-92139404D01*
X140190709Y-92138483D01*
X140181673Y-92085610D01*
X140188910Y-92060960D01*
X140187730Y-92060596D01*
X140190571Y-92051399D01*
X140190571Y-92051396D01*
X140190573Y-92051393D01*
X140200500Y-91983260D01*
X140200500Y-91816740D01*
X140190573Y-91748607D01*
X140190571Y-91748604D01*
X140190571Y-91748600D01*
X140187730Y-91739404D01*
X140190709Y-91738483D01*
X140181673Y-91685610D01*
X140188910Y-91660960D01*
X140187730Y-91660596D01*
X140190571Y-91651399D01*
X140190571Y-91651396D01*
X140190573Y-91651393D01*
X140200500Y-91583260D01*
X140200500Y-91416740D01*
X140190573Y-91348607D01*
X140190571Y-91348604D01*
X140190571Y-91348600D01*
X140187730Y-91339404D01*
X140190709Y-91338483D01*
X140181673Y-91285610D01*
X140188910Y-91260960D01*
X140187730Y-91260596D01*
X140190571Y-91251399D01*
X140190571Y-91251396D01*
X140190573Y-91251393D01*
X140200500Y-91183260D01*
X140200500Y-91150000D01*
X140800000Y-91150000D01*
X140800000Y-92547844D01*
X140806401Y-92607372D01*
X140806403Y-92607379D01*
X140856645Y-92742086D01*
X140856649Y-92742093D01*
X140942809Y-92857187D01*
X140942812Y-92857190D01*
X141057906Y-92943350D01*
X141057913Y-92943354D01*
X141192620Y-92993596D01*
X141192627Y-92993598D01*
X141252155Y-92999999D01*
X141252172Y-93000000D01*
X142650000Y-93000000D01*
X142650000Y-91150000D01*
X140800000Y-91150000D01*
X140200500Y-91150000D01*
X140200500Y-91016740D01*
X140190573Y-90948607D01*
X140190571Y-90948604D01*
X140190571Y-90948600D01*
X140187730Y-90939404D01*
X140190709Y-90938483D01*
X140181673Y-90885610D01*
X140188910Y-90860960D01*
X140187730Y-90860596D01*
X140190571Y-90851399D01*
X140190571Y-90851396D01*
X140190573Y-90851393D01*
X140200500Y-90783260D01*
X140200500Y-90650000D01*
X140800000Y-90650000D01*
X142650000Y-90650000D01*
X142650000Y-88800000D01*
X143150000Y-88800000D01*
X143150000Y-90650000D01*
X145000000Y-90650000D01*
X145000000Y-89252172D01*
X144999999Y-89252155D01*
X144993598Y-89192627D01*
X144993596Y-89192620D01*
X144943354Y-89057913D01*
X144943350Y-89057906D01*
X144857190Y-88942812D01*
X144857187Y-88942809D01*
X144742093Y-88856649D01*
X144742086Y-88856645D01*
X144607379Y-88806403D01*
X144607372Y-88806401D01*
X144547844Y-88800000D01*
X143150000Y-88800000D01*
X142650000Y-88800000D01*
X141252155Y-88800000D01*
X141192627Y-88806401D01*
X141192620Y-88806403D01*
X141057913Y-88856645D01*
X141057906Y-88856649D01*
X140942812Y-88942809D01*
X140942809Y-88942812D01*
X140856649Y-89057906D01*
X140856645Y-89057913D01*
X140806403Y-89192620D01*
X140806401Y-89192627D01*
X140800000Y-89252155D01*
X140800000Y-90650000D01*
X140200500Y-90650000D01*
X140200500Y-90616740D01*
X140190573Y-90548607D01*
X140190571Y-90548604D01*
X140190571Y-90548600D01*
X140187730Y-90539404D01*
X140190709Y-90538483D01*
X140181673Y-90485610D01*
X140188910Y-90460960D01*
X140187730Y-90460596D01*
X140190571Y-90451399D01*
X140190571Y-90451396D01*
X140190573Y-90451393D01*
X140200500Y-90383260D01*
X140200500Y-90216740D01*
X140190573Y-90148607D01*
X140190571Y-90148604D01*
X140190571Y-90148600D01*
X140187730Y-90139404D01*
X140190709Y-90138483D01*
X140181673Y-90085610D01*
X140188910Y-90060960D01*
X140187730Y-90060596D01*
X140190571Y-90051399D01*
X140190571Y-90051396D01*
X140190573Y-90051393D01*
X140200500Y-89983260D01*
X140200500Y-89816740D01*
X140190573Y-89748607D01*
X140190571Y-89748604D01*
X140190571Y-89748600D01*
X140187730Y-89739404D01*
X140190709Y-89738483D01*
X140181673Y-89685610D01*
X140188910Y-89660960D01*
X140187730Y-89660596D01*
X140190571Y-89651399D01*
X140190571Y-89651396D01*
X140190573Y-89651393D01*
X140200500Y-89583260D01*
X140200500Y-89416740D01*
X140190573Y-89348607D01*
X140190571Y-89348604D01*
X140190571Y-89348600D01*
X140187730Y-89339404D01*
X140190709Y-89338483D01*
X140181673Y-89285610D01*
X140188910Y-89260960D01*
X140187730Y-89260596D01*
X140190571Y-89251399D01*
X140190571Y-89251396D01*
X140190573Y-89251393D01*
X140200500Y-89183260D01*
X140200500Y-89016740D01*
X140190573Y-88948607D01*
X140190571Y-88948604D01*
X140190571Y-88948600D01*
X140187730Y-88939404D01*
X140190709Y-88938483D01*
X140181673Y-88885610D01*
X140188910Y-88860960D01*
X140187730Y-88860596D01*
X140190571Y-88851399D01*
X140190571Y-88851396D01*
X140190573Y-88851393D01*
X140200500Y-88783260D01*
X140200500Y-88616740D01*
X140190573Y-88548607D01*
X140190571Y-88548604D01*
X140190571Y-88548600D01*
X140187730Y-88539404D01*
X140190709Y-88538483D01*
X140181673Y-88485610D01*
X140188910Y-88460960D01*
X140187730Y-88460596D01*
X140190571Y-88451399D01*
X140190571Y-88451396D01*
X140190573Y-88451393D01*
X140200500Y-88383260D01*
X140200500Y-88324500D01*
X140220185Y-88257461D01*
X140272989Y-88211706D01*
X140324500Y-88200500D01*
X140383255Y-88200500D01*
X140383260Y-88200500D01*
X140451393Y-88190573D01*
X140451396Y-88190571D01*
X140451399Y-88190571D01*
X140460596Y-88187730D01*
X140461516Y-88190709D01*
X140514390Y-88181673D01*
X140539039Y-88188910D01*
X140539404Y-88187730D01*
X140548600Y-88190571D01*
X140548604Y-88190571D01*
X140548607Y-88190573D01*
X140616740Y-88200500D01*
X140616745Y-88200500D01*
X140783255Y-88200500D01*
X140783260Y-88200500D01*
X140851393Y-88190573D01*
X140851396Y-88190571D01*
X140851399Y-88190571D01*
X140860596Y-88187730D01*
X140861516Y-88190709D01*
X140914390Y-88181673D01*
X140939039Y-88188910D01*
X140939404Y-88187730D01*
X140948600Y-88190571D01*
X140948604Y-88190571D01*
X140948607Y-88190573D01*
X141016740Y-88200500D01*
X141016745Y-88200500D01*
X141183255Y-88200500D01*
X141183260Y-88200500D01*
X141251393Y-88190573D01*
X141251396Y-88190571D01*
X141251399Y-88190571D01*
X141260596Y-88187730D01*
X141261516Y-88190709D01*
X141314390Y-88181673D01*
X141339039Y-88188910D01*
X141339404Y-88187730D01*
X141348600Y-88190571D01*
X141348604Y-88190571D01*
X141348607Y-88190573D01*
X141416740Y-88200500D01*
X141416745Y-88200500D01*
X141583255Y-88200500D01*
X141583260Y-88200500D01*
X141651393Y-88190573D01*
X141651396Y-88190571D01*
X141651399Y-88190571D01*
X141660596Y-88187730D01*
X141661516Y-88190709D01*
X141714390Y-88181673D01*
X141739039Y-88188910D01*
X141739404Y-88187730D01*
X141748600Y-88190571D01*
X141748604Y-88190571D01*
X141748607Y-88190573D01*
X141816740Y-88200500D01*
X141816745Y-88200500D01*
X141983255Y-88200500D01*
X141983260Y-88200500D01*
X142051393Y-88190573D01*
X142051396Y-88190571D01*
X142051399Y-88190571D01*
X142060596Y-88187730D01*
X142061516Y-88190709D01*
X142114390Y-88181673D01*
X142139039Y-88188910D01*
X142139404Y-88187730D01*
X142148600Y-88190571D01*
X142148604Y-88190571D01*
X142148607Y-88190573D01*
X142216740Y-88200500D01*
X142216745Y-88200500D01*
X142383255Y-88200500D01*
X142383260Y-88200500D01*
X142451393Y-88190573D01*
X142451396Y-88190571D01*
X142451399Y-88190571D01*
X142460596Y-88187730D01*
X142461516Y-88190709D01*
X142514390Y-88181673D01*
X142539039Y-88188910D01*
X142539404Y-88187730D01*
X142548600Y-88190571D01*
X142548604Y-88190571D01*
X142548607Y-88190573D01*
X142616740Y-88200500D01*
X142616745Y-88200500D01*
X142783255Y-88200500D01*
X142783260Y-88200500D01*
X142851393Y-88190573D01*
X142851396Y-88190571D01*
X142851399Y-88190571D01*
X142860596Y-88187730D01*
X142861516Y-88190709D01*
X142914390Y-88181673D01*
X142939039Y-88188910D01*
X142939404Y-88187730D01*
X142948600Y-88190571D01*
X142948604Y-88190571D01*
X142948607Y-88190573D01*
X143016740Y-88200500D01*
X143016745Y-88200500D01*
X143183255Y-88200500D01*
X143183260Y-88200500D01*
X143251393Y-88190573D01*
X143251396Y-88190571D01*
X143251399Y-88190571D01*
X143260596Y-88187730D01*
X143261516Y-88190709D01*
X143314390Y-88181673D01*
X143339039Y-88188910D01*
X143339404Y-88187730D01*
X143348600Y-88190571D01*
X143348604Y-88190571D01*
X143348607Y-88190573D01*
X143416740Y-88200500D01*
X143416745Y-88200500D01*
X143583255Y-88200500D01*
X143583260Y-88200500D01*
X143651393Y-88190573D01*
X143651396Y-88190571D01*
X143651399Y-88190571D01*
X143660596Y-88187730D01*
X143661516Y-88190709D01*
X143714390Y-88181673D01*
X143739039Y-88188910D01*
X143739404Y-88187730D01*
X143748600Y-88190571D01*
X143748604Y-88190571D01*
X143748607Y-88190573D01*
X143816740Y-88200500D01*
X143816745Y-88200500D01*
X143983255Y-88200500D01*
X143983260Y-88200500D01*
X144051393Y-88190573D01*
X144051396Y-88190571D01*
X144051399Y-88190571D01*
X144060596Y-88187730D01*
X144061516Y-88190709D01*
X144114390Y-88181673D01*
X144139039Y-88188910D01*
X144139404Y-88187730D01*
X144148600Y-88190571D01*
X144148604Y-88190571D01*
X144148607Y-88190573D01*
X144216740Y-88200500D01*
X144216745Y-88200500D01*
X144383255Y-88200500D01*
X144383260Y-88200500D01*
X144451393Y-88190573D01*
X144451396Y-88190571D01*
X144451399Y-88190571D01*
X144460596Y-88187730D01*
X144461516Y-88190709D01*
X144514390Y-88181673D01*
X144539039Y-88188910D01*
X144539404Y-88187730D01*
X144548600Y-88190571D01*
X144548604Y-88190571D01*
X144548607Y-88190573D01*
X144616740Y-88200500D01*
X144616745Y-88200500D01*
X144783255Y-88200500D01*
X144783260Y-88200500D01*
X144851393Y-88190573D01*
X144851396Y-88190571D01*
X144851399Y-88190571D01*
X144860596Y-88187730D01*
X144861516Y-88190709D01*
X144914390Y-88181673D01*
X144939039Y-88188910D01*
X144939404Y-88187730D01*
X144948600Y-88190571D01*
X144948604Y-88190571D01*
X144948607Y-88190573D01*
X145016740Y-88200500D01*
X145016745Y-88200500D01*
X145183255Y-88200500D01*
X145183260Y-88200500D01*
X145251393Y-88190573D01*
X145251396Y-88190571D01*
X145251399Y-88190571D01*
X145260596Y-88187730D01*
X145261516Y-88190709D01*
X145314390Y-88181673D01*
X145339039Y-88188910D01*
G37*
%TD.AperFunction*%
%TA.AperFunction,Conductor*%
G36*
X149618834Y-88298452D02*
G01*
X149674767Y-88340324D01*
X149699184Y-88405788D01*
X149699500Y-88414634D01*
X149699500Y-89892077D01*
X149679815Y-89959116D01*
X149627011Y-90004871D01*
X149557853Y-90014815D01*
X149494297Y-89985790D01*
X149457794Y-89931081D01*
X149411547Y-89791518D01*
X149411542Y-89791507D01*
X149322575Y-89647271D01*
X149322572Y-89647267D01*
X149202732Y-89527427D01*
X149202728Y-89527424D01*
X149058492Y-89438457D01*
X149058481Y-89438452D01*
X148897606Y-89385144D01*
X148798322Y-89375000D01*
X148739133Y-89375000D01*
X148672094Y-89355315D01*
X148626339Y-89302511D01*
X148616395Y-89233353D01*
X148645420Y-89169797D01*
X148651431Y-89163340D01*
X149487820Y-88326951D01*
X149549142Y-88293468D01*
X149618834Y-88298452D01*
G37*
%TD.AperFunction*%
%TA.AperFunction,Conductor*%
G36*
X149080782Y-82555002D02*
G01*
X149125644Y-82608567D01*
X149136000Y-82658177D01*
X149136000Y-87597864D01*
X149116315Y-87664903D01*
X149099681Y-87685545D01*
X147287053Y-89498172D01*
X147225730Y-89531657D01*
X147156038Y-89526673D01*
X147100105Y-89484801D01*
X147076330Y-89421152D01*
X147076146Y-89421179D01*
X147076021Y-89420326D01*
X147075696Y-89419454D01*
X147075500Y-89416753D01*
X147075500Y-89416740D01*
X147065573Y-89348607D01*
X147065571Y-89348604D01*
X147065571Y-89348600D01*
X147062730Y-89339404D01*
X147065709Y-89338483D01*
X147056673Y-89285610D01*
X147063910Y-89260960D01*
X147062730Y-89260596D01*
X147065571Y-89251399D01*
X147065571Y-89251396D01*
X147065573Y-89251393D01*
X147075500Y-89183260D01*
X147075500Y-89016740D01*
X147065573Y-88948607D01*
X147065571Y-88948604D01*
X147065571Y-88948600D01*
X147062730Y-88939404D01*
X147065709Y-88938483D01*
X147056673Y-88885610D01*
X147063910Y-88860960D01*
X147062730Y-88860596D01*
X147065571Y-88851399D01*
X147065571Y-88851396D01*
X147065573Y-88851393D01*
X147075500Y-88783260D01*
X147075500Y-88616740D01*
X147065573Y-88548607D01*
X147065571Y-88548604D01*
X147065571Y-88548600D01*
X147062730Y-88539404D01*
X147065709Y-88538483D01*
X147056673Y-88485610D01*
X147063910Y-88460960D01*
X147062730Y-88460596D01*
X147065571Y-88451399D01*
X147065571Y-88451396D01*
X147065573Y-88451393D01*
X147075500Y-88383260D01*
X147075500Y-88216740D01*
X147065573Y-88148607D01*
X147014198Y-88043517D01*
X147014196Y-88043515D01*
X147014196Y-88043514D01*
X146931485Y-87960803D01*
X146826391Y-87909426D01*
X146758261Y-87899500D01*
X146758260Y-87899500D01*
X146554755Y-87899500D01*
X146487716Y-87879815D01*
X146467074Y-87863181D01*
X145936819Y-87332926D01*
X145903334Y-87271603D01*
X145900500Y-87245245D01*
X145900500Y-86927526D01*
X145920185Y-86860487D01*
X145972989Y-86814732D01*
X146008312Y-86804587D01*
X146156762Y-86785044D01*
X146302841Y-86724536D01*
X146428282Y-86628282D01*
X146524536Y-86502841D01*
X146585044Y-86356762D01*
X146605682Y-86200000D01*
X146585044Y-86043238D01*
X146524536Y-85897159D01*
X146524535Y-85897158D01*
X146524535Y-85897157D01*
X146426124Y-85768905D01*
X146400930Y-85703736D01*
X146400500Y-85693419D01*
X146400500Y-84139115D01*
X146420185Y-84072076D01*
X146468209Y-84028627D01*
X146478220Y-84023528D01*
X146573528Y-83928220D01*
X146573528Y-83928219D01*
X147787290Y-82714456D01*
X147848611Y-82680973D01*
X147918303Y-82685957D01*
X147919763Y-82686513D01*
X147983794Y-82711318D01*
X147983802Y-82711321D01*
X148193390Y-82750500D01*
X148193392Y-82750500D01*
X148406608Y-82750500D01*
X148406610Y-82750500D01*
X148616198Y-82711321D01*
X148815019Y-82634298D01*
X148946724Y-82552749D01*
X149014083Y-82534194D01*
X149080782Y-82555002D01*
G37*
%TD.AperFunction*%
%TA.AperFunction,Conductor*%
G36*
X130505703Y-77963447D02*
G01*
X130531232Y-77994039D01*
X130594815Y-78101553D01*
X130594821Y-78101561D01*
X130634049Y-78140788D01*
X130667535Y-78202111D01*
X130664148Y-78257424D01*
X130666464Y-78257930D01*
X130664853Y-78265305D01*
X130662000Y-78295730D01*
X130662000Y-78704269D01*
X130664853Y-78734699D01*
X130664853Y-78734701D01*
X130706399Y-78853429D01*
X130709707Y-78862882D01*
X130790350Y-78972150D01*
X130899618Y-79052793D01*
X130942345Y-79067744D01*
X131027799Y-79097646D01*
X131058230Y-79100500D01*
X131058234Y-79100500D01*
X132191770Y-79100500D01*
X132222199Y-79097646D01*
X132222201Y-79097646D01*
X132290050Y-79073904D01*
X132350382Y-79052793D01*
X132459650Y-78972150D01*
X132538797Y-78864908D01*
X132550886Y-78850860D01*
X132553216Y-78848530D01*
X132553220Y-78848528D01*
X132648528Y-78753220D01*
X132730537Y-78671210D01*
X132791856Y-78637728D01*
X132861548Y-78642712D01*
X132917482Y-78684583D01*
X132937168Y-78727644D01*
X132937361Y-78727577D01*
X132938088Y-78729655D01*
X132939359Y-78732435D01*
X132939854Y-78734701D01*
X132981399Y-78853429D01*
X132984707Y-78862882D01*
X133065350Y-78972150D01*
X133174618Y-79052793D01*
X133217345Y-79067744D01*
X133302799Y-79097646D01*
X133333230Y-79100500D01*
X133333234Y-79100500D01*
X134466770Y-79100500D01*
X134491112Y-79098216D01*
X134497199Y-79097646D01*
X134554867Y-79077466D01*
X134624645Y-79073904D01*
X134685272Y-79108632D01*
X134701360Y-79129410D01*
X134777426Y-79252731D01*
X134897267Y-79372572D01*
X134897271Y-79372575D01*
X135041507Y-79461542D01*
X135041518Y-79461547D01*
X135202393Y-79514855D01*
X135301683Y-79524999D01*
X135349999Y-79524998D01*
X135350000Y-79524998D01*
X135350000Y-78449000D01*
X135369685Y-78381961D01*
X135422489Y-78336206D01*
X135474000Y-78325000D01*
X135726000Y-78325000D01*
X135793039Y-78344685D01*
X135838794Y-78397489D01*
X135850000Y-78449000D01*
X135850000Y-79524999D01*
X135898308Y-79524999D01*
X135898322Y-79524998D01*
X135997607Y-79514855D01*
X136158481Y-79461547D01*
X136158492Y-79461542D01*
X136302728Y-79372575D01*
X136302732Y-79372572D01*
X136422572Y-79252732D01*
X136422575Y-79252728D01*
X136511542Y-79108492D01*
X136511547Y-79108481D01*
X136564855Y-78947606D01*
X136571334Y-78884199D01*
X136597730Y-78819508D01*
X136654911Y-78779356D01*
X136724722Y-78776493D01*
X136782373Y-78809121D01*
X137413181Y-79439929D01*
X137446666Y-79501252D01*
X137449500Y-79527610D01*
X137449500Y-79981659D01*
X137429815Y-80048698D01*
X137395601Y-80080955D01*
X137396782Y-80082512D01*
X137312545Y-80146390D01*
X137247233Y-80171213D01*
X137178869Y-80156785D01*
X137132082Y-80112684D01*
X137122573Y-80097268D01*
X137002732Y-79977427D01*
X137002728Y-79977424D01*
X136858492Y-79888457D01*
X136858481Y-79888452D01*
X136697606Y-79835144D01*
X136598322Y-79825000D01*
X136575000Y-79825000D01*
X136575000Y-80926000D01*
X136555315Y-80993039D01*
X136502511Y-81038794D01*
X136451000Y-81050000D01*
X135375001Y-81050000D01*
X135375001Y-81050500D01*
X135355316Y-81117539D01*
X135302512Y-81163294D01*
X135251001Y-81174500D01*
X134752610Y-81174500D01*
X134685571Y-81154815D01*
X134664929Y-81138181D01*
X134461818Y-80935070D01*
X134428333Y-80873747D01*
X134425499Y-80847389D01*
X134425499Y-80550000D01*
X135375000Y-80550000D01*
X136075000Y-80550000D01*
X136075000Y-79824999D01*
X136051693Y-79825000D01*
X136051674Y-79825001D01*
X135952392Y-79835144D01*
X135791518Y-79888452D01*
X135791507Y-79888457D01*
X135647271Y-79977424D01*
X135647267Y-79977427D01*
X135527427Y-80097267D01*
X135527424Y-80097271D01*
X135438457Y-80241507D01*
X135438452Y-80241518D01*
X135385144Y-80402393D01*
X135375000Y-80501677D01*
X135375000Y-80550000D01*
X134425499Y-80550000D01*
X134425499Y-80477129D01*
X134425498Y-80477123D01*
X134419091Y-80417516D01*
X134368797Y-80282671D01*
X134368793Y-80282664D01*
X134282547Y-80167455D01*
X134282544Y-80167452D01*
X134167335Y-80081206D01*
X134167328Y-80081202D01*
X134032486Y-80030910D01*
X134032485Y-80030909D01*
X134032483Y-80030909D01*
X133972873Y-80024500D01*
X133972863Y-80024500D01*
X133477129Y-80024500D01*
X133477123Y-80024501D01*
X133417516Y-80030908D01*
X133282671Y-80081202D01*
X133282664Y-80081206D01*
X133167455Y-80167452D01*
X133167452Y-80167455D01*
X133081206Y-80282664D01*
X133081202Y-80282671D01*
X133033424Y-80410773D01*
X133030909Y-80417517D01*
X133024500Y-80477127D01*
X133024500Y-80477134D01*
X133024500Y-80477135D01*
X133024500Y-81122870D01*
X133024501Y-81122876D01*
X133030908Y-81182483D01*
X133081202Y-81317328D01*
X133081206Y-81317335D01*
X133167452Y-81432544D01*
X133167455Y-81432547D01*
X133282664Y-81518793D01*
X133282671Y-81518797D01*
X133325625Y-81534818D01*
X133381559Y-81576689D01*
X133405976Y-81642153D01*
X133391124Y-81710426D01*
X133341719Y-81759832D01*
X133282292Y-81775000D01*
X133212155Y-81775000D01*
X133152627Y-81781401D01*
X133152620Y-81781403D01*
X133017913Y-81831645D01*
X133017906Y-81831649D01*
X132902813Y-81917809D01*
X132857102Y-81978871D01*
X132801168Y-82020742D01*
X132731476Y-82025726D01*
X132701541Y-82015045D01*
X132691088Y-82009719D01*
X132643126Y-81985281D01*
X132643124Y-81985280D01*
X132643123Y-81985280D01*
X132605100Y-81979257D01*
X132541966Y-81949326D01*
X132505036Y-81890014D01*
X132500500Y-81856784D01*
X132500500Y-81593464D01*
X132520185Y-81526425D01*
X132550187Y-81494199D01*
X132632546Y-81432546D01*
X132718796Y-81317331D01*
X132769091Y-81182483D01*
X132775500Y-81122873D01*
X132775499Y-80477128D01*
X132769091Y-80417517D01*
X132747604Y-80359908D01*
X132718797Y-80282671D01*
X132718793Y-80282664D01*
X132632547Y-80167455D01*
X132632544Y-80167452D01*
X132517335Y-80081206D01*
X132517328Y-80081202D01*
X132382486Y-80030910D01*
X132382485Y-80030909D01*
X132382483Y-80030909D01*
X132322873Y-80024500D01*
X132322863Y-80024500D01*
X131827129Y-80024500D01*
X131827123Y-80024501D01*
X131767516Y-80030908D01*
X131632671Y-80081202D01*
X131632664Y-80081206D01*
X131517455Y-80167452D01*
X131517452Y-80167455D01*
X131431206Y-80282664D01*
X131431202Y-80282671D01*
X131383424Y-80410773D01*
X131380909Y-80417517D01*
X131374500Y-80477127D01*
X131374500Y-80477134D01*
X131374500Y-80477135D01*
X131374500Y-81122870D01*
X131374501Y-81122876D01*
X131380908Y-81182483D01*
X131431202Y-81317328D01*
X131431206Y-81317335D01*
X131517452Y-81432544D01*
X131517453Y-81432545D01*
X131517454Y-81432546D01*
X131599811Y-81494198D01*
X131641682Y-81550131D01*
X131649500Y-81593464D01*
X131649500Y-82135506D01*
X131635985Y-82191800D01*
X131600279Y-82261876D01*
X131584500Y-82361506D01*
X131584500Y-82629364D01*
X131564815Y-82696403D01*
X131548181Y-82717045D01*
X130512181Y-83753045D01*
X130450858Y-83786530D01*
X130381166Y-83781546D01*
X130325233Y-83739674D01*
X130300816Y-83674210D01*
X130300500Y-83665364D01*
X130300500Y-78057160D01*
X130320185Y-77990121D01*
X130372989Y-77944366D01*
X130442147Y-77934422D01*
X130505703Y-77963447D01*
G37*
%TD.AperFunction*%
%TA.AperFunction,Conductor*%
G36*
X149642539Y-70320185D02*
G01*
X149688294Y-70372989D01*
X149699500Y-70424500D01*
X149699500Y-75209053D01*
X149679815Y-75276092D01*
X149627011Y-75321847D01*
X149557853Y-75331791D01*
X149501189Y-75308319D01*
X149392093Y-75226649D01*
X149392086Y-75226645D01*
X149257379Y-75176403D01*
X149257372Y-75176401D01*
X149197844Y-75170000D01*
X148550000Y-75170000D01*
X148550000Y-76084498D01*
X148442315Y-76035320D01*
X148335763Y-76020000D01*
X148264237Y-76020000D01*
X148157685Y-76035320D01*
X148050000Y-76084498D01*
X148050000Y-75170000D01*
X147402155Y-75170000D01*
X147342627Y-75176401D01*
X147342620Y-75176403D01*
X147207913Y-75226645D01*
X147207906Y-75226649D01*
X147092812Y-75312809D01*
X147092809Y-75312812D01*
X147006649Y-75427906D01*
X147006645Y-75427913D01*
X146956403Y-75562620D01*
X146956401Y-75562627D01*
X146950000Y-75622155D01*
X146950000Y-76270000D01*
X147866314Y-76270000D01*
X147840507Y-76310156D01*
X147800000Y-76448111D01*
X147800000Y-76591889D01*
X147840507Y-76729844D01*
X147866314Y-76770000D01*
X146950000Y-76770000D01*
X146950000Y-77417844D01*
X146956401Y-77477372D01*
X146956403Y-77477379D01*
X147006645Y-77612086D01*
X147006649Y-77612093D01*
X147092809Y-77727187D01*
X147092812Y-77727190D01*
X147207906Y-77813350D01*
X147207913Y-77813354D01*
X147342620Y-77863596D01*
X147342627Y-77863598D01*
X147402155Y-77869999D01*
X147402172Y-77870000D01*
X147600634Y-77870000D01*
X147667673Y-77889685D01*
X147713428Y-77942489D01*
X147723372Y-78011647D01*
X147694347Y-78075203D01*
X147665911Y-78099427D01*
X147603701Y-78137945D01*
X147446127Y-78281593D01*
X147317632Y-78451746D01*
X147222596Y-78642605D01*
X147222596Y-78642607D01*
X147164244Y-78847689D01*
X147152712Y-78972148D01*
X147144571Y-79060000D01*
X147164244Y-79272310D01*
X147222592Y-79477380D01*
X147222596Y-79477392D01*
X147222596Y-79477394D01*
X147317632Y-79668253D01*
X147436003Y-79825000D01*
X147446128Y-79838407D01*
X147603698Y-79982052D01*
X147784981Y-80094298D01*
X147983802Y-80171321D01*
X148180613Y-80208111D01*
X148242893Y-80239779D01*
X148278166Y-80300092D01*
X148275232Y-80369900D01*
X148235023Y-80427040D01*
X148180613Y-80451888D01*
X147983802Y-80488679D01*
X147983799Y-80488679D01*
X147983799Y-80488680D01*
X147784982Y-80565701D01*
X147784980Y-80565702D01*
X147603699Y-80677947D01*
X147446127Y-80821593D01*
X147317632Y-80991746D01*
X147222596Y-81182605D01*
X147222596Y-81182607D01*
X147164244Y-81387689D01*
X147144571Y-81599999D01*
X147144571Y-81600000D01*
X147164244Y-81812310D01*
X147215559Y-81992661D01*
X147214973Y-82062528D01*
X147183974Y-82114277D01*
X146085071Y-83213181D01*
X146023748Y-83246666D01*
X145997390Y-83249500D01*
X145499500Y-83249500D01*
X145432461Y-83229815D01*
X145386706Y-83177011D01*
X145375500Y-83125500D01*
X145375499Y-82627129D01*
X145375498Y-82627123D01*
X145373503Y-82608567D01*
X145369091Y-82567517D01*
X145364423Y-82555002D01*
X145318797Y-82432671D01*
X145318793Y-82432664D01*
X145232547Y-82317455D01*
X145232544Y-82317452D01*
X145117335Y-82231206D01*
X145117328Y-82231202D01*
X144982482Y-82180908D01*
X144982483Y-82180908D01*
X144922883Y-82174501D01*
X144922881Y-82174500D01*
X144922873Y-82174500D01*
X144922865Y-82174500D01*
X144540635Y-82174500D01*
X144473596Y-82154815D01*
X144452954Y-82138181D01*
X140800319Y-78485545D01*
X140766834Y-78424222D01*
X140764000Y-78397864D01*
X140764000Y-76240110D01*
X140783685Y-76173071D01*
X140836489Y-76127316D01*
X140905647Y-76117372D01*
X140969203Y-76146397D01*
X140975681Y-76152429D01*
X141238181Y-76414929D01*
X141271666Y-76476252D01*
X141274500Y-76502610D01*
X141274500Y-76891144D01*
X141279825Y-76935494D01*
X141284640Y-76975588D01*
X141293655Y-76998449D01*
X141326669Y-77082166D01*
X141331853Y-77095310D01*
X141338134Y-77164897D01*
X141332441Y-77184769D01*
X141314860Y-77231126D01*
X141314859Y-77231130D01*
X141294355Y-77400000D01*
X141314859Y-77568869D01*
X141314860Y-77568874D01*
X141375182Y-77727931D01*
X141434144Y-77813350D01*
X141471817Y-77867929D01*
X141555978Y-77942489D01*
X141599150Y-77980736D01*
X141726166Y-78047399D01*
X141749775Y-78059790D01*
X141914944Y-78100500D01*
X142085056Y-78100500D01*
X142250225Y-78059790D01*
X142382967Y-77990121D01*
X142400849Y-77980736D01*
X142400850Y-77980734D01*
X142400852Y-77980734D01*
X142528183Y-77867929D01*
X142624818Y-77727930D01*
X142685140Y-77568872D01*
X142693290Y-77501750D01*
X142720910Y-77437575D01*
X142778843Y-77398517D01*
X142848696Y-77396982D01*
X142893297Y-77419433D01*
X142897270Y-77422575D01*
X143041507Y-77511542D01*
X143041518Y-77511547D01*
X143202393Y-77564855D01*
X143301683Y-77574999D01*
X143325000Y-77574998D01*
X143325000Y-76850000D01*
X143825000Y-76850000D01*
X143825000Y-77574999D01*
X143848308Y-77574999D01*
X143848322Y-77574998D01*
X143947607Y-77564855D01*
X144108481Y-77511547D01*
X144108492Y-77511542D01*
X144252728Y-77422575D01*
X144252732Y-77422572D01*
X144372572Y-77302732D01*
X144372575Y-77302728D01*
X144461542Y-77158492D01*
X144461547Y-77158481D01*
X144514855Y-76997606D01*
X144524999Y-76898322D01*
X144525000Y-76898309D01*
X144525000Y-76850000D01*
X143825000Y-76850000D01*
X143325000Y-76850000D01*
X143325000Y-75625000D01*
X143825000Y-75625000D01*
X143825000Y-76350000D01*
X144524999Y-76350000D01*
X144524999Y-76301692D01*
X144524998Y-76301677D01*
X144514855Y-76202392D01*
X144461547Y-76041518D01*
X144461542Y-76041507D01*
X144372575Y-75897271D01*
X144372572Y-75897267D01*
X144252732Y-75777427D01*
X144252728Y-75777424D01*
X144108492Y-75688457D01*
X144108481Y-75688452D01*
X143947606Y-75635144D01*
X143848322Y-75625000D01*
X143825000Y-75625000D01*
X143325000Y-75625000D01*
X143325000Y-75624999D01*
X143301693Y-75625000D01*
X143301674Y-75625001D01*
X143202392Y-75635144D01*
X143041518Y-75688452D01*
X143041507Y-75688457D01*
X142897271Y-75777424D01*
X142897267Y-75777427D01*
X142777427Y-75897267D01*
X142777422Y-75897273D01*
X142767914Y-75912688D01*
X142715964Y-75959410D01*
X142647001Y-75970629D01*
X142587454Y-75946390D01*
X142509976Y-75887636D01*
X142375588Y-75834640D01*
X142332242Y-75829435D01*
X142291144Y-75824500D01*
X142291138Y-75824500D01*
X141902610Y-75824500D01*
X141835571Y-75804815D01*
X141814929Y-75788181D01*
X141761819Y-75735071D01*
X141728334Y-75673748D01*
X141725500Y-75647390D01*
X141725500Y-75028115D01*
X141739015Y-74971821D01*
X141785646Y-74880304D01*
X141789758Y-74854336D01*
X141819686Y-74791202D01*
X141878997Y-74754270D01*
X141948860Y-74755266D01*
X142007093Y-74793875D01*
X142017770Y-74808636D01*
X142057680Y-74873340D01*
X142057683Y-74873344D01*
X142181654Y-74997315D01*
X142330875Y-75089356D01*
X142330880Y-75089358D01*
X142497302Y-75144505D01*
X142497309Y-75144506D01*
X142600019Y-75154999D01*
X142949999Y-75154999D01*
X142950000Y-75154998D01*
X142950000Y-74205000D01*
X143450000Y-74205000D01*
X143450000Y-75154999D01*
X143799972Y-75154999D01*
X143799986Y-75154998D01*
X143902697Y-75144505D01*
X144069119Y-75089358D01*
X144069124Y-75089356D01*
X144218345Y-74997315D01*
X144342315Y-74873345D01*
X144434356Y-74724124D01*
X144434358Y-74724119D01*
X144489505Y-74557697D01*
X144489506Y-74557690D01*
X144499999Y-74454986D01*
X144500000Y-74454973D01*
X144500000Y-74205000D01*
X143450000Y-74205000D01*
X142950000Y-74205000D01*
X142950000Y-72839000D01*
X142969685Y-72771961D01*
X143022489Y-72726206D01*
X143043327Y-72721672D01*
X143050000Y-72715000D01*
X143050000Y-71879624D01*
X143064505Y-71952545D01*
X143119760Y-72035240D01*
X143202455Y-72090495D01*
X143300000Y-72109898D01*
X143397545Y-72090495D01*
X143480240Y-72035240D01*
X143535495Y-71952545D01*
X143550000Y-71879624D01*
X143550000Y-72721000D01*
X143530315Y-72788039D01*
X143477511Y-72833794D01*
X143456672Y-72838327D01*
X143450000Y-72845000D01*
X143450000Y-73705000D01*
X144499999Y-73705000D01*
X144499999Y-73455028D01*
X144499998Y-73455013D01*
X144489505Y-73352302D01*
X144434358Y-73185880D01*
X144434356Y-73185875D01*
X144342315Y-73036654D01*
X144218345Y-72912684D01*
X144069124Y-72820643D01*
X144069119Y-72820641D01*
X143964346Y-72785923D01*
X143906901Y-72746150D01*
X143880078Y-72681634D01*
X143892393Y-72612859D01*
X143917919Y-72578342D01*
X144024535Y-72476997D01*
X144024535Y-72476996D01*
X144134913Y-72318413D01*
X144211106Y-72140862D01*
X144250000Y-71951606D01*
X144250000Y-71755000D01*
X143550000Y-71755000D01*
X143550000Y-71255000D01*
X144250000Y-71255000D01*
X144250000Y-71106823D01*
X144235352Y-70962778D01*
X144177515Y-70778438D01*
X144177510Y-70778428D01*
X144083748Y-70609501D01*
X144083743Y-70609494D01*
X143994270Y-70505270D01*
X143965538Y-70441581D01*
X143975800Y-70372469D01*
X144021798Y-70319877D01*
X144088356Y-70300500D01*
X149575500Y-70300500D01*
X149642539Y-70320185D01*
G37*
%TD.AperFunction*%
%TA.AperFunction,Conductor*%
G36*
X135976669Y-70320185D02*
G01*
X136022424Y-70372989D01*
X136032368Y-70442147D01*
X136003343Y-70505703D01*
X135995062Y-70514374D01*
X135975465Y-70533001D01*
X135975464Y-70533003D01*
X135865086Y-70691586D01*
X135788893Y-70869137D01*
X135750000Y-71058393D01*
X135750000Y-71255000D01*
X136450000Y-71255000D01*
X136450000Y-71755000D01*
X135750000Y-71755000D01*
X135750000Y-71903176D01*
X135764647Y-72047221D01*
X135822484Y-72231561D01*
X135822489Y-72231571D01*
X135916251Y-72400498D01*
X135916256Y-72400505D01*
X136042107Y-72547105D01*
X136072089Y-72570313D01*
X136113053Y-72626914D01*
X136116914Y-72696677D01*
X136082444Y-72757452D01*
X136035193Y-72786075D01*
X135930878Y-72820642D01*
X135930875Y-72820643D01*
X135781654Y-72912684D01*
X135657684Y-73036654D01*
X135565643Y-73185875D01*
X135565641Y-73185880D01*
X135510494Y-73352302D01*
X135510493Y-73352309D01*
X135500000Y-73455013D01*
X135500000Y-73705000D01*
X136550000Y-73705000D01*
X136550000Y-72845000D01*
X136540023Y-72835023D01*
X136506961Y-72825315D01*
X136461206Y-72772511D01*
X136450000Y-72721000D01*
X136450000Y-71879624D01*
X136464505Y-71952545D01*
X136519760Y-72035240D01*
X136602455Y-72090495D01*
X136700000Y-72109898D01*
X136797545Y-72090495D01*
X136880240Y-72035240D01*
X136935495Y-71952545D01*
X136950000Y-71879624D01*
X136950000Y-72715000D01*
X136959976Y-72724976D01*
X136993039Y-72734685D01*
X137038794Y-72787489D01*
X137050000Y-72839000D01*
X137050000Y-75154999D01*
X137399972Y-75154999D01*
X137399986Y-75154998D01*
X137502697Y-75144505D01*
X137669119Y-75089358D01*
X137669124Y-75089356D01*
X137818344Y-74997315D01*
X137851586Y-74964074D01*
X137912908Y-74930588D01*
X137982600Y-74935572D01*
X138038534Y-74977442D01*
X138053829Y-75004302D01*
X138075899Y-75057586D01*
X138172075Y-75182924D01*
X138297414Y-75279100D01*
X138443366Y-75339555D01*
X138443372Y-75339557D01*
X138499998Y-75347011D01*
X138500000Y-75347010D01*
X138500000Y-73056361D01*
X138519685Y-72989322D01*
X138536319Y-72968680D01*
X138550000Y-72954999D01*
X138550000Y-71755000D01*
X136950000Y-71755000D01*
X136950000Y-71255000D01*
X143050000Y-71255000D01*
X143050000Y-71755000D01*
X141450000Y-71755000D01*
X141450000Y-72954999D01*
X141885875Y-72954999D01*
X141952914Y-72974684D01*
X141998669Y-73027488D01*
X142008613Y-73096646D01*
X141991414Y-73144096D01*
X141965643Y-73185875D01*
X141965642Y-73185878D01*
X141924747Y-73309291D01*
X141884974Y-73366735D01*
X141820458Y-73393558D01*
X141751682Y-73381243D01*
X141719360Y-73357967D01*
X141638347Y-73276954D01*
X141638344Y-73276952D01*
X141638342Y-73276950D01*
X141561517Y-73237805D01*
X141525301Y-73219352D01*
X141431524Y-73204500D01*
X141168482Y-73204500D01*
X141074693Y-73219354D01*
X141074691Y-73219355D01*
X141031293Y-73241468D01*
X140962624Y-73254364D01*
X140918706Y-73241468D01*
X140900083Y-73231979D01*
X140875303Y-73219353D01*
X140875299Y-73219352D01*
X140781524Y-73204500D01*
X140518482Y-73204500D01*
X140424693Y-73219354D01*
X140424691Y-73219355D01*
X140381293Y-73241468D01*
X140312624Y-73254364D01*
X140268706Y-73241468D01*
X140250083Y-73231979D01*
X140225303Y-73219353D01*
X140225299Y-73219352D01*
X140131524Y-73204500D01*
X139868482Y-73204500D01*
X139774693Y-73219354D01*
X139774691Y-73219355D01*
X139731293Y-73241468D01*
X139662624Y-73254364D01*
X139618706Y-73241468D01*
X139600083Y-73231979D01*
X139575303Y-73219353D01*
X139575299Y-73219352D01*
X139481524Y-73204500D01*
X139305758Y-73204500D01*
X139238719Y-73184815D01*
X139230268Y-73178873D01*
X139228312Y-73177372D01*
X139187111Y-73120943D01*
X139182959Y-73051197D01*
X139217173Y-72990278D01*
X139278892Y-72957527D01*
X139303802Y-72954999D01*
X139549972Y-72954999D01*
X139549986Y-72954998D01*
X139652697Y-72944505D01*
X139819119Y-72889358D01*
X139819124Y-72889356D01*
X139934903Y-72817943D01*
X140002295Y-72799503D01*
X140065097Y-72817943D01*
X140180875Y-72889356D01*
X140180880Y-72889358D01*
X140347302Y-72944505D01*
X140347309Y-72944506D01*
X140450019Y-72954999D01*
X140949999Y-72954999D01*
X140950000Y-72954998D01*
X140950000Y-71755000D01*
X139050000Y-71755000D01*
X139050000Y-72891341D01*
X139030315Y-72958380D01*
X138977511Y-73004135D01*
X138909814Y-73014280D01*
X138900000Y-73012987D01*
X138900000Y-73379966D01*
X138886485Y-73436260D01*
X138864353Y-73479695D01*
X138864352Y-73479698D01*
X138849500Y-73573475D01*
X138849500Y-74786517D01*
X138864354Y-74880304D01*
X138864354Y-74880305D01*
X138873680Y-74898608D01*
X138886484Y-74923737D01*
X138900000Y-74980031D01*
X138900000Y-75347010D01*
X138900001Y-75347011D01*
X138956627Y-75339557D01*
X138956633Y-75339555D01*
X139102587Y-75279100D01*
X139102589Y-75279098D01*
X139230274Y-75181123D01*
X139295443Y-75155929D01*
X139305743Y-75155499D01*
X139481518Y-75155499D01*
X139481521Y-75155499D01*
X139492601Y-75153744D01*
X139561894Y-75162698D01*
X139615347Y-75207694D01*
X139635987Y-75274445D01*
X139636000Y-75276217D01*
X139636000Y-78749392D01*
X139633361Y-78774838D01*
X139631282Y-78784749D01*
X139635523Y-78818770D01*
X139636000Y-78826446D01*
X139636000Y-78830162D01*
X139638796Y-78846920D01*
X139639728Y-78852507D01*
X139646309Y-78905302D01*
X139648484Y-78912607D01*
X139650963Y-78919828D01*
X139676294Y-78966635D01*
X139699662Y-79014434D01*
X139704107Y-79020661D01*
X139708781Y-79026665D01*
X139747943Y-79062716D01*
X142599681Y-81914454D01*
X142633166Y-81975777D01*
X142636000Y-82002135D01*
X142636000Y-82087919D01*
X142616315Y-82154958D01*
X142563511Y-82200713D01*
X142555334Y-82204101D01*
X142482669Y-82231203D01*
X142482664Y-82231206D01*
X142417122Y-82280271D01*
X142351658Y-82304688D01*
X142283385Y-82289836D01*
X142237274Y-82246101D01*
X142222575Y-82222271D01*
X142222572Y-82222267D01*
X142102732Y-82102427D01*
X142102728Y-82102424D01*
X141958492Y-82013457D01*
X141958481Y-82013452D01*
X141797606Y-81960144D01*
X141698322Y-81950000D01*
X141650000Y-81950000D01*
X141650000Y-83026000D01*
X141630315Y-83093039D01*
X141577511Y-83138794D01*
X141526000Y-83150000D01*
X139674000Y-83150000D01*
X139606961Y-83130315D01*
X139561206Y-83077511D01*
X139550000Y-83026000D01*
X139550000Y-82650000D01*
X140050000Y-82650000D01*
X141150000Y-82650000D01*
X141150000Y-81950000D01*
X141149999Y-81949999D01*
X141101693Y-81950000D01*
X141101675Y-81950001D01*
X141002392Y-81960144D01*
X140841518Y-82013452D01*
X140841507Y-82013457D01*
X140697271Y-82102424D01*
X140697267Y-82102427D01*
X140687681Y-82112014D01*
X140626358Y-82145499D01*
X140556666Y-82140515D01*
X140512319Y-82112014D01*
X140502732Y-82102427D01*
X140502728Y-82102424D01*
X140358492Y-82013457D01*
X140358481Y-82013452D01*
X140197606Y-81960144D01*
X140098322Y-81950000D01*
X140050000Y-81950000D01*
X140050000Y-82650000D01*
X139550000Y-82650000D01*
X139550000Y-81950000D01*
X139549999Y-81949999D01*
X139501693Y-81950000D01*
X139501675Y-81950001D01*
X139402392Y-81960144D01*
X139241518Y-82013452D01*
X139241507Y-82013457D01*
X139097271Y-82102424D01*
X139097267Y-82102427D01*
X138977427Y-82222267D01*
X138977424Y-82222271D01*
X138888457Y-82366507D01*
X138888452Y-82366518D01*
X138882187Y-82385427D01*
X138842414Y-82442872D01*
X138777899Y-82469695D01*
X138709123Y-82457380D01*
X138676800Y-82434104D01*
X138414166Y-82171470D01*
X138392651Y-82160508D01*
X138376058Y-82150340D01*
X138356528Y-82136150D01*
X138333563Y-82128688D01*
X138315589Y-82121243D01*
X138294075Y-82110281D01*
X138288958Y-82109470D01*
X138270221Y-82106503D01*
X138251307Y-82101962D01*
X138231333Y-82095472D01*
X138181970Y-82065222D01*
X138163220Y-82046472D01*
X138043126Y-81985281D01*
X138043124Y-81985280D01*
X138043121Y-81985279D01*
X137943493Y-81969500D01*
X137943488Y-81969500D01*
X137762610Y-81969500D01*
X137695571Y-81949815D01*
X137674929Y-81933181D01*
X137596929Y-81855181D01*
X137563444Y-81793858D01*
X137568428Y-81724166D01*
X137596929Y-81679819D01*
X137664929Y-81611819D01*
X137726252Y-81578334D01*
X137752610Y-81575500D01*
X138141138Y-81575500D01*
X138141144Y-81575500D01*
X138225590Y-81565359D01*
X138359975Y-81512364D01*
X138475078Y-81425078D01*
X138562364Y-81309975D01*
X138615359Y-81175590D01*
X138625500Y-81091144D01*
X138625500Y-80508856D01*
X138615359Y-80424410D01*
X138562364Y-80290025D01*
X138562363Y-80290024D01*
X138562363Y-80290023D01*
X138475078Y-80174921D01*
X138353218Y-80082512D01*
X138354726Y-80080522D01*
X138314930Y-80039715D01*
X138300500Y-79981659D01*
X138300500Y-79232608D01*
X138300499Y-79232604D01*
X138293039Y-79209645D01*
X138288495Y-79190721D01*
X138284719Y-79166874D01*
X138273753Y-79145354D01*
X138266308Y-79127378D01*
X138260217Y-79108632D01*
X138258849Y-79104419D01*
X138244651Y-79084878D01*
X138234492Y-79068299D01*
X138223528Y-79046780D01*
X138128220Y-78951472D01*
X136411819Y-77235071D01*
X136378334Y-77173748D01*
X136375500Y-77147390D01*
X136375500Y-76758862D01*
X136375500Y-76758856D01*
X136365359Y-76674410D01*
X136312364Y-76540025D01*
X136312363Y-76540024D01*
X136312363Y-76540023D01*
X136225078Y-76424921D01*
X136109976Y-76337636D01*
X135975588Y-76284640D01*
X135932242Y-76279435D01*
X135891144Y-76274500D01*
X135308856Y-76274500D01*
X135270841Y-76279065D01*
X135224411Y-76284640D01*
X135090023Y-76337636D01*
X135036415Y-76378289D01*
X134971103Y-76403112D01*
X134902739Y-76388684D01*
X134853029Y-76339586D01*
X134844449Y-76320440D01*
X134815293Y-76237119D01*
X134815292Y-76237117D01*
X134789664Y-76202392D01*
X134734650Y-76127850D01*
X134625382Y-76047207D01*
X134625380Y-76047206D01*
X134497200Y-76002353D01*
X134466770Y-75999500D01*
X134466766Y-75999500D01*
X133333234Y-75999500D01*
X133333230Y-75999500D01*
X133302800Y-76002353D01*
X133302798Y-76002353D01*
X133174619Y-76047206D01*
X133174617Y-76047207D01*
X133065350Y-76127850D01*
X132984707Y-76237117D01*
X132984706Y-76237119D01*
X132939853Y-76365298D01*
X132939853Y-76365300D01*
X132937000Y-76395730D01*
X132937000Y-76622482D01*
X132917315Y-76689521D01*
X132864511Y-76735276D01*
X132795353Y-76745220D01*
X132731797Y-76716195D01*
X132725319Y-76710163D01*
X132624319Y-76609163D01*
X132590834Y-76547840D01*
X132588000Y-76521482D01*
X132588000Y-76395730D01*
X132585146Y-76365300D01*
X132585146Y-76365298D01*
X132540293Y-76237119D01*
X132540293Y-76237118D01*
X132476803Y-76151092D01*
X132452834Y-76085464D01*
X132460633Y-76033489D01*
X132485140Y-75968872D01*
X132505645Y-75800000D01*
X132485140Y-75631128D01*
X132424818Y-75472070D01*
X132328183Y-75332071D01*
X132200852Y-75219266D01*
X132200849Y-75219263D01*
X132050226Y-75140210D01*
X131885056Y-75099500D01*
X131714944Y-75099500D01*
X131549773Y-75140210D01*
X131399150Y-75219263D01*
X131271816Y-75332072D01*
X131175182Y-75472068D01*
X131114860Y-75631125D01*
X131114859Y-75631130D01*
X131094355Y-75800000D01*
X131103186Y-75872729D01*
X131091726Y-75941653D01*
X131044822Y-75993439D01*
X131021045Y-76004717D01*
X130899619Y-76047206D01*
X130899617Y-76047207D01*
X130790350Y-76127850D01*
X130709707Y-76237117D01*
X130709706Y-76237119D01*
X130664853Y-76365298D01*
X130664853Y-76365300D01*
X130662000Y-76395730D01*
X130662000Y-76804269D01*
X130664853Y-76834699D01*
X130666464Y-76842073D01*
X130664028Y-76842604D01*
X130666965Y-76900378D01*
X130634051Y-76959208D01*
X130594821Y-76998439D01*
X130594813Y-76998449D01*
X130531232Y-77105960D01*
X130480163Y-77153644D01*
X130411421Y-77166147D01*
X130346832Y-77139502D01*
X130306902Y-77082166D01*
X130300500Y-77042839D01*
X130300500Y-74205000D01*
X135500001Y-74205000D01*
X135500001Y-74454986D01*
X135510494Y-74557697D01*
X135565641Y-74724119D01*
X135565643Y-74724124D01*
X135657684Y-74873345D01*
X135781654Y-74997315D01*
X135930875Y-75089356D01*
X135930880Y-75089358D01*
X136097302Y-75144505D01*
X136097309Y-75144506D01*
X136200019Y-75154999D01*
X136549999Y-75154999D01*
X136550000Y-75154998D01*
X136550000Y-74205000D01*
X135500001Y-74205000D01*
X130300500Y-74205000D01*
X130300500Y-70424500D01*
X130320185Y-70357461D01*
X130372989Y-70311706D01*
X130424500Y-70300500D01*
X135909630Y-70300500D01*
X135976669Y-70320185D01*
G37*
%TD.AperFunction*%
%TD*%
M02*
