%TF.GenerationSoftware,KiCad,Pcbnew,7.0.9-7.0.9~ubuntu22.04.1*%
%TF.CreationDate,2023-12-01T21:26:21+01:00*%
%TF.ProjectId,rp2040_pmod,72703230-3430-45f7-906d-6f642e6b6963,rev?*%
%TF.SameCoordinates,Original*%
%TF.FileFunction,Drillmap*%
%TF.FilePolarity,Positive*%
%FSLAX45Y45*%
G04 Gerber Fmt 4.5, Leading zero omitted, Abs format (unit mm)*
G04 Created by KiCad (PCBNEW 7.0.9-7.0.9~ubuntu22.04.1) date 2023-12-01 21:26:21*
%MOMM*%
%LPD*%
G01*
G04 APERTURE LIST*
%ADD10C,0.100000*%
%ADD11C,0.200000*%
G04 APERTURE END LIST*
D10*
X13000000Y-11000000D02*
X13000000Y-7000000D01*
X15000000Y-11000000D02*
X13000000Y-11000000D01*
X15000000Y-7000000D02*
X15000000Y-11000000D01*
X13000000Y-7000000D02*
X15000000Y-7000000D01*
D11*
X13255777Y-11316484D02*
X13255777Y-11116484D01*
X13255777Y-11116484D02*
X13303396Y-11116484D01*
X13303396Y-11116484D02*
X13331967Y-11126008D01*
X13331967Y-11126008D02*
X13351015Y-11145055D01*
X13351015Y-11145055D02*
X13360539Y-11164103D01*
X13360539Y-11164103D02*
X13370062Y-11202198D01*
X13370062Y-11202198D02*
X13370062Y-11230769D01*
X13370062Y-11230769D02*
X13360539Y-11268865D01*
X13360539Y-11268865D02*
X13351015Y-11287912D01*
X13351015Y-11287912D02*
X13331967Y-11306960D01*
X13331967Y-11306960D02*
X13303396Y-11316484D01*
X13303396Y-11316484D02*
X13255777Y-11316484D01*
X13455777Y-11316484D02*
X13455777Y-11183150D01*
X13455777Y-11221246D02*
X13465301Y-11202198D01*
X13465301Y-11202198D02*
X13474824Y-11192674D01*
X13474824Y-11192674D02*
X13493872Y-11183150D01*
X13493872Y-11183150D02*
X13512920Y-11183150D01*
X13579586Y-11316484D02*
X13579586Y-11183150D01*
X13579586Y-11116484D02*
X13570062Y-11126008D01*
X13570062Y-11126008D02*
X13579586Y-11135531D01*
X13579586Y-11135531D02*
X13589110Y-11126008D01*
X13589110Y-11126008D02*
X13579586Y-11116484D01*
X13579586Y-11116484D02*
X13579586Y-11135531D01*
X13703396Y-11316484D02*
X13684348Y-11306960D01*
X13684348Y-11306960D02*
X13674824Y-11287912D01*
X13674824Y-11287912D02*
X13674824Y-11116484D01*
X13808158Y-11316484D02*
X13789110Y-11306960D01*
X13789110Y-11306960D02*
X13779586Y-11287912D01*
X13779586Y-11287912D02*
X13779586Y-11116484D01*
X14036729Y-11316484D02*
X14036729Y-11116484D01*
X14036729Y-11116484D02*
X14103396Y-11259341D01*
X14103396Y-11259341D02*
X14170062Y-11116484D01*
X14170062Y-11116484D02*
X14170062Y-11316484D01*
X14351015Y-11316484D02*
X14351015Y-11211722D01*
X14351015Y-11211722D02*
X14341491Y-11192674D01*
X14341491Y-11192674D02*
X14322443Y-11183150D01*
X14322443Y-11183150D02*
X14284348Y-11183150D01*
X14284348Y-11183150D02*
X14265301Y-11192674D01*
X14351015Y-11306960D02*
X14331967Y-11316484D01*
X14331967Y-11316484D02*
X14284348Y-11316484D01*
X14284348Y-11316484D02*
X14265301Y-11306960D01*
X14265301Y-11306960D02*
X14255777Y-11287912D01*
X14255777Y-11287912D02*
X14255777Y-11268865D01*
X14255777Y-11268865D02*
X14265301Y-11249817D01*
X14265301Y-11249817D02*
X14284348Y-11240293D01*
X14284348Y-11240293D02*
X14331967Y-11240293D01*
X14331967Y-11240293D02*
X14351015Y-11230769D01*
X14446253Y-11183150D02*
X14446253Y-11383150D01*
X14446253Y-11192674D02*
X14465301Y-11183150D01*
X14465301Y-11183150D02*
X14503396Y-11183150D01*
X14503396Y-11183150D02*
X14522443Y-11192674D01*
X14522443Y-11192674D02*
X14531967Y-11202198D01*
X14531967Y-11202198D02*
X14541491Y-11221246D01*
X14541491Y-11221246D02*
X14541491Y-11278388D01*
X14541491Y-11278388D02*
X14531967Y-11297436D01*
X14531967Y-11297436D02*
X14522443Y-11306960D01*
X14522443Y-11306960D02*
X14503396Y-11316484D01*
X14503396Y-11316484D02*
X14465301Y-11316484D01*
X14465301Y-11316484D02*
X14446253Y-11306960D01*
X14627205Y-11297436D02*
X14636729Y-11306960D01*
X14636729Y-11306960D02*
X14627205Y-11316484D01*
X14627205Y-11316484D02*
X14617682Y-11306960D01*
X14617682Y-11306960D02*
X14627205Y-11297436D01*
X14627205Y-11297436D02*
X14627205Y-11316484D01*
X14627205Y-11192674D02*
X14636729Y-11202198D01*
X14636729Y-11202198D02*
X14627205Y-11211722D01*
X14627205Y-11211722D02*
X14617682Y-11202198D01*
X14617682Y-11202198D02*
X14627205Y-11192674D01*
X14627205Y-11192674D02*
X14627205Y-11211722D01*
M02*
